<?xml version="1.0" encoding="UTF-8" standalone="no"?>
<svg
   version="1.1"
   id="Layer_1"
   x="0px"
   y="0px"
   width="100%"
   viewBox="0 0 256 256"
   enable-background="new 0 0 256 256"
   xml:space="preserve"
   sodipodi:docname="dsa.svg"
   inkscape:version="1.1.1 (3bf5ae0d25, 2021-09-20)"
   xmlns:inkscape="http://www.inkscape.org/namespaces/inkscape"
   xmlns:sodipodi="http://sodipodi.sourceforge.net/DTD/sodipodi-0.dtd"
   xmlns="http://www.w3.org/2000/svg"
   xmlns:svg="http://www.w3.org/2000/svg"><defs
   id="defs385" /><sodipodi:namedview
   id="namedview383"
   pagecolor="#505050"
   bordercolor="#eeeeee"
   borderopacity="1"
   inkscape:pageshadow="0"
   inkscape:pageopacity="0"
   inkscape:pagecheckerboard="0"
   showgrid="false"
   inkscape:zoom="45.254834"
   inkscape:cx="101.35934"
   inkscape:cy="172.81027"
   inkscape:window-width="1920"
   inkscape:window-height="1057"
   inkscape:window-x="-8"
   inkscape:window-y="-8"
   inkscape:window-maximized="1"
   inkscape:current-layer="Layer_1" />

<path
   fill="#072B39"
   opacity="1.000000"
   stroke="none"
   d=" M257.000000,1.500000   C171.979111,2.000017 86.958206,2.000035 1.468657,2.000026   C2.500000,1.666667 3.999837,1.042472 5.500023,1.041634   C89.333336,0.994795 173.166672,1.000000 257.000000,1.500000  z"
   id="path4" />

<path
   fill="#0461AB"
   opacity="1.000000"
   stroke="none"
   d=" M124.611755,66.611664   C122.031120,62.649994 118.623398,58.987267 117.058762,54.658371   C114.552475,47.724163 115.037437,40.576508 120.122070,33.931511   C127.784325,27.376102 135.276382,22.275862 145.495087,24.511042   C145.674484,24.550283 145.960999,24.099850 146.197525,23.877907   C148.933060,25.121004 151.668610,26.364105 154.778732,28.138744   C156.784409,30.095940 158.415482,31.521597 160.046570,32.947254   C160.046570,32.947254 160.001617,32.986877 160.032532,33.371353   C161.261276,37.181305 162.459091,40.606781 163.746201,44.437988   C163.751022,46.215683 163.666550,47.587650 163.300064,49.119522   C160.675400,54.163635 158.332748,59.047844 155.865753,64.193100   C155.518204,64.768639 155.294998,65.083130 154.813019,65.347290   C154.208252,65.333786 153.862259,65.370613 153.133057,65.370750   C149.528030,66.989899 146.306213,68.645737 142.875153,70.523262   C142.501801,70.864784 142.337677,70.984627 141.858948,71.140648   C140.695450,71.785255 139.846558,72.393684 138.752075,73.013855   C138.179382,73.065239 137.852036,73.067719 137.380463,72.667206   C133.028275,70.404808 128.820007,68.508240 124.611755,66.611664  z"
   id="path8" />
<path
   fill="#0362AE"
   opacity="1.000000"
   stroke="none"
   d=" M43.268639,147.140503   C43.722355,146.965561 44.176075,146.790604 45.040710,146.217316   C48.607952,142.404434 51.803452,139.024628 54.886475,135.545151   C55.480335,134.874924 55.633278,133.814011 55.989632,132.933319   C57.441334,132.314789 58.893032,131.696274 61.002953,131.312057   C65.458946,131.697952 69.256721,131.849533 73.134064,132.104721   C73.213631,132.208328 73.559898,132.314545 73.559898,132.314545   C73.559898,132.314545 73.884628,132.131760 74.264374,132.136017   C76.380363,132.413422 78.116608,132.686554 80.047539,133.248352   C82.515755,135.684769 84.789284,137.832520 87.315918,140.164948   C88.034927,141.256439 88.500832,142.163254 88.967148,143.486389   C89.406059,146.510529 87.777412,149.981827 92.236992,151.086319   C92.718071,151.197006 92.907646,151.253128 93.056808,151.604492   C92.960358,152.293945 92.904335,152.688171 92.676819,153.306946   C92.320534,154.252853 92.135735,154.974182 91.794846,155.926941   C91.387825,156.431122 91.136894,156.703857 90.563194,157.096985   C89.272354,159.995041 88.304276,162.772705 87.273804,165.861221   C86.164413,167.455200 85.117424,168.738327 83.706619,170.078186   C80.623573,172.711380 75.042961,170.968979 73.798370,176.404816   C72.327072,176.722244 71.172134,176.883591 69.750504,176.820984   C67.978722,176.749115 66.473640,176.901215 64.572250,177.081451   C63.134026,176.950516 62.092117,176.791458 60.924583,176.342529   C59.436592,175.154602 58.084988,174.239716 56.709938,173.361542   C51.748295,170.192841 47.370937,166.419189 45.496727,160.639908   C44.602989,157.884003 44.454769,154.886307 43.950588,151.640228   C43.711094,149.901718 43.489868,148.521118 43.268639,147.140503  z"
   id="path10" />
<path
   fill="#0E5791"
   opacity="1.000000"
   stroke="none"
   d=" M91.950943,155.695511   C92.135735,154.974182 92.320534,154.252853 93.159958,153.327972   C107.185616,153.138702 120.557419,153.224701 133.926636,153.076569   C135.598648,153.058060 137.256943,151.802094 138.967926,150.645203   C139.008728,124.447975 139.003204,98.725044 138.997665,73.002106   C139.846558,72.393684 140.695450,71.785255 141.829315,71.599464   C142.214706,103.025673 142.315094,134.029236 142.303604,165.296829   C142.735031,166.738846 143.278320,167.916840 143.772858,169.457260   C143.469574,170.728836 143.214996,171.637985 142.868195,172.870880   C142.687500,174.081802 142.599045,174.968994 142.337784,176.232941   C142.472992,183.468781 142.781006,190.327850 143.225891,197.552399   C145.191360,198.320099 147.016922,199.054535 148.848999,199.071167   C161.537216,199.186386 174.226807,199.152206 187.014984,199.517014   C187.660034,201.262360 188.527313,202.617981 188.700836,204.057236   C189.993759,214.781403 197.648422,218.516556 206.689545,221.298416   C213.247971,223.316360 218.695480,219.537918 224.581818,219.257828   C219.631348,220.954239 214.893250,222.898453 209.976730,223.610077   C203.489777,224.548981 198.375626,220.451691 193.068024,217.452347   C191.309692,215.002686 189.551361,212.553024 187.443939,209.527161   C186.440720,205.883530 188.341156,201.234680 182.603439,201.236755   C168.464142,201.241882 154.324875,201.345703 139.831299,201.289352   C138.981781,201.132782 138.486542,201.096695 137.951813,200.827316   C137.912323,200.594025 137.933823,200.121307 138.192062,199.780823   C138.595581,186.167801 138.754303,172.895309 138.831482,159.622360   C138.834244,159.147476 138.031601,158.667923 137.401321,157.806976   C136.066406,156.878448 134.939102,155.870300 133.801849,155.858948   C119.852386,155.719742 105.901482,155.726501 91.950943,155.695511  z"
   id="path12" />

<path
   fill="#8AC140"
   opacity="1.000000"
   stroke="none"
   d=" M121.984558,115.093452   C122.971642,115.557487 123.958725,116.021523 125.131454,117.098953   C126.372314,119.876007 128.055634,121.953438 128.366699,124.219261   C129.356781,131.431198 124.300758,137.963211 117.330193,139.134644   C109.654289,140.424622 104.237122,136.495102 102.372925,127.908875   C104.411850,124.805313 106.123466,121.840317 108.147827,118.844833   C108.984222,118.240578 109.507874,117.666809 110.330597,116.873245   C111.241905,115.869766 111.854134,115.086090 112.591042,114.504066   C112.715721,114.705719 112.316933,114.962242 112.667007,114.742355   C113.394287,112.372795 113.771507,110.223137 114.455551,107.929184   C115.425552,107.657089 116.088722,107.529282 116.966507,107.611053   C117.302101,108.799538 117.423073,109.778450 117.446289,110.994080   C117.478447,111.536140 117.608353,111.841484 117.799667,112.371277   C117.861069,112.595726 117.976562,113.046570 117.996201,113.343132   C118.681442,114.088707 119.347046,114.537712 120.342346,114.959045   C121.109550,114.985397 121.547050,115.039421 121.984558,115.093452  z"
   id="path16" />


<path
   fill="#B86F2F"
   opacity="1.000000"
   stroke="none"
   d=" M113.276680,223.442245   C113.276680,223.442245 113.211678,223.167770 113.100769,222.604706   C112.975128,213.744095 112.752296,205.439590 113.030266,197.151855   C113.177208,192.770569 112.782860,189.351852 107.771896,188.033142   C106.641853,187.735764 105.863052,186.103668 105.282990,185.110260   C107.430023,185.971512 109.182014,186.895554 111.012115,187.623138   C113.243073,188.510132 115.539696,189.231949 117.829575,190.488495   C117.843124,198.720795 117.718864,206.492798 117.918587,214.256454   C117.961884,215.939789 119.168312,217.593185 119.855537,219.426712   C119.872070,219.593048 119.870567,219.927277 119.608932,220.034729   C119.215065,220.243347 119.040031,220.319778 118.963089,220.452911   C118.891548,220.576691 118.882515,220.888458 118.917595,220.900024   C120.086891,221.285309 121.270012,221.973694 122.440620,221.955154   C131.575974,221.810516 140.709152,221.529205 149.872330,221.648438   C150.755127,223.965546 151.366211,226.081207 152.511688,227.850983   C155.027695,231.738251 161.713867,234.151993 166.116913,232.740997   C171.095993,231.145401 173.372787,227.195206 174.027817,222.300598   C174.353836,219.864304 174.125061,217.353775 174.431152,215.133575   C177.450180,221.148621 176.294968,226.388626 172.122787,230.857117   C167.970139,235.304703 162.743546,235.949677 157.115448,233.985306   C155.880295,233.554199 154.659866,233.080856 153.432663,232.626968   C153.432663,232.626968 153.273987,232.670059 153.279907,232.435760   C152.840546,231.784866 152.395279,231.368286 151.950012,230.951691   C151.909683,230.666687 151.780762,230.429947 151.284485,229.854462   C150.679199,229.288025 150.352692,229.108566 150.026184,228.929108   C150.026184,228.929092 150.105118,228.953445 150.098282,228.528137   C148.603714,226.670517 147.150360,224.043762 145.622665,223.999786   C135.737106,223.715240 125.835350,223.993759 115.610092,223.989914   C114.613075,223.742172 113.944878,223.592209 113.276680,223.442245  M115.491562,205.440720   C115.491562,205.440720 115.529320,205.519287 115.491562,205.440720  M115.534637,208.505524   C115.534637,208.505524 115.460243,208.542099 115.534637,208.505524  z"
   id="path22" />









<path
   fill="#347CBA"
   opacity="1.000000"
   stroke="none"
   d=" M138.752075,73.013855   C139.003204,98.725044 139.008728,124.447975 138.635315,150.607330   C137.809753,151.011795 137.363129,150.979843 136.916519,150.947876   C136.988373,125.938728 137.060226,100.929573 137.161469,75.134338   C137.302048,73.909843 137.413223,73.471443 137.524399,73.033035   C137.852036,73.067719 138.179382,73.065239 138.752075,73.013855  z"
   id="path42" />


<path
   fill="#95C253"
   opacity="1.000000"
   stroke="none"
   d=" M61.909161,83.484741   C61.905594,82.278816 61.957794,81.533432 62.026123,79.982719   C62.013496,78.600525 61.984745,78.023651 62.066238,77.141335   C63.518398,77.198074 64.860321,77.560257 66.210480,78.202377   C66.145973,78.654266 66.073219,78.826218 65.799530,79.138969   C65.651924,79.858406 65.705261,80.437042 65.816803,81.405968   C66.082794,83.585419 66.290573,85.374588 66.420990,87.442352   C66.398750,88.099937 66.453873,88.478928 66.338753,89.086380   C66.019539,89.864265 65.870575,90.413673 65.598549,91.075218   C65.334641,91.541634 65.425591,91.823509 65.857628,92.357109   C66.658264,93.748260 67.349594,94.815269 68.470337,95.934105   C73.352570,96.349030 76.975716,95.820320 79.204857,90.854691   C80.051262,88.969231 83.651733,88.320099 85.899139,87.427956   C82.190063,91.495117 78.578789,95.241791 74.967522,98.988480   C70.918625,98.745323 66.869728,98.502167 62.419102,98.150986   C61.999893,93.343727 61.982410,88.644501 61.909161,83.484741  z"
   id="path48" />



<path
   fill="#518AB5"
   opacity="1.000000"
   stroke="none"
   d=" M186.915955,199.166000   C174.226807,199.152206 161.537216,199.186386 148.848999,199.071167   C147.016922,199.054535 145.191360,198.320099 143.589355,197.532654   C144.541183,197.050217 145.266449,196.952988 145.991699,196.855759   C158.279663,196.925400 170.568314,196.943192 182.855042,197.105682   C185.512909,197.140823 186.452988,196.146881 187.171158,193.573730   C187.927765,190.862854 189.820724,188.469116 191.605560,186.153427   C191.993927,186.370041 191.986496,186.825043 191.875183,187.184875   C190.147919,191.418472 188.531937,195.292236 186.915955,199.166000  z"
   id="path56" />





<path
   fill="#5289B1"
   opacity="1.000000"
   stroke="none"
   d=" M136.597076,150.988007   C137.363129,150.979843 137.809753,151.011795 138.588989,151.081619   C137.256943,151.802094 135.598648,153.058060 133.926636,153.076569   C120.557419,153.224701 107.185616,153.138702 93.331451,153.103394   C92.904335,152.688171 92.960358,152.293945 93.056808,151.604492   C94.461174,151.216003 95.825119,151.122742 98.057510,151.030884   C108.616974,150.984879 118.307991,150.937485 127.999001,150.890106   C130.044128,150.945099 132.089249,151.000092 134.568054,150.983978   C135.427032,150.951309 135.852325,150.989731 136.597076,150.988007  z"
   id="path68" />







<path
   fill="#0E5791"
   opacity="1.000000"
   stroke="none"
   d=" M49.462955,171.772354   C46.994389,166.703903 44.862240,161.754257 42.653969,156.404510   C42.622898,155.238892 42.667946,154.473373 42.935509,153.216156   C43.428295,152.482346 43.698574,152.240250 43.968853,151.998138   C44.454769,154.886307 44.602989,157.884003 45.496727,160.639908   C47.370937,166.419189 51.748295,170.192841 56.709938,173.361542   C58.084988,174.239716 59.436592,175.154602 60.924583,176.342514   C57.299934,175.051987 53.549656,173.471588 49.462955,171.772354  z"
   id="path84" />
<path
   fill="#5A97C3"
   opacity="1.000000"
   stroke="none"
   d=" M145.976624,23.580082   C145.960999,24.099850 145.674484,24.550283 145.495087,24.511042   C135.276382,22.275862 127.784325,27.376102 120.420952,33.754578   C125.096069,23.125954 134.844482,20.942505 145.976624,23.580082  z"
   id="path86" />

<path
   fill="#DEE470"
   opacity="1.000000"
   stroke="none"
   d=" M203.384521,85.276077   C203.565521,85.617561 203.746521,85.959053 203.589905,86.559647   C196.654953,84.922844 190.293884,85.300430 186.364395,91.477509   C184.265930,94.776260 184.011307,99.247948 182.724091,103.105362   C182.523651,103.020447 182.125412,102.843468 182.074493,102.628922   C182.023560,102.414375 181.856995,102.006012 181.920715,101.582474   C182.766296,97.545517 183.548187,93.932091 184.330078,90.318672   C184.330078,90.318672 184.267151,90.251457 184.515411,90.178955   C184.910019,89.760834 185.056351,89.415222 185.202682,89.069603   C185.202682,89.069603 185.103348,89.079132 185.416473,88.988571   C186.698425,87.989838 187.667252,87.081673 188.636063,86.173500   C188.636063,86.173500 188.886612,86.143875 189.309845,85.962479   C194.200851,83.377090 198.761627,83.487160 203.384521,85.276077  z"
   id="path90" />
<path
   fill="#6198C2"
   opacity="1.000000"
   stroke="none"
   d=" M201.838440,176.572891   C207.298523,176.365372 212.475204,176.338867 217.400848,176.653503   C215.319214,176.972931 213.456238,176.720078 211.663864,176.971130   C205.280670,177.865234 198.545944,178.026550 194.540848,184.477448   C193.953293,185.423813 192.850754,186.050461 191.986481,186.825043   C191.986496,186.825043 191.993927,186.370041 191.967987,186.144043   C195.146378,182.863342 198.350693,179.808624 201.838440,176.572891  z"
   id="path92" />
<path
   fill="#9AC577"
   opacity="1.000000"
   stroke="none"
   d=" M23.758858,64.147476   C24.781317,63.961464 25.519850,63.962151 26.523375,64.318130   C25.514236,65.940628 24.302742,67.279274 22.954185,68.461578   C18.985580,71.940926 17.895754,76.483124 19.860466,81.433189   C20.340406,82.642387 20.617376,83.932152 20.661211,85.026230   C16.908564,81.497978 16.738281,77.279816 17.214025,72.893280   C19.300993,70.040245 21.387960,67.187218 23.758858,64.147476  z"
   id="path94" />




<path
   fill="#5594C3"
   opacity="1.000000"
   stroke="none"
   d=" M55.644821,133.034821   C55.633278,133.814011 55.480335,134.874924 54.886475,135.545151   C51.803452,139.024628 48.607952,142.404434 45.140358,145.985168   C45.602093,139.626892 49.296494,135.452744 55.644821,133.034821  z"
   id="path104" />
<path
   fill="#4B87B3"
   opacity="1.000000"
   stroke="none"
   d=" M79.852852,132.959686   C78.116608,132.686554 76.380363,132.413422 74.059563,132.089874   C73.475006,132.039459 73.054497,132.001114 73.054497,132.001114   C69.256721,131.849533 65.458946,131.697952 61.356052,131.342590   C67.275574,126.822891 73.168098,129.573914 79.417824,132.312408   C79.759087,132.638916 79.852852,132.959686 79.852852,132.959686  z"
   id="path106" />
<path
   fill="#0E5791"
   opacity="1.000000"
   stroke="none"
   d=" M161.517792,33.999043   C162.452789,36.179562 163.180023,38.205673 164.024200,40.578918   C164.060196,41.711540 163.979233,42.497025 163.777588,43.657387   C162.459091,40.606781 161.261276,37.181305 160.058228,33.358040   C160.472031,33.255043 160.891022,33.549843 161.517792,33.999043  z"
   id="path108" />

<path
   fill="#95C253"
   opacity="1.000000"
   stroke="none"
   d=" M117.797943,76.989494   C117.653557,78.068977 117.509163,79.148468 116.931900,80.505936   C115.660393,80.872574 114.821770,80.961227 113.771721,81.051163   C113.560303,81.052444 113.138031,81.074303 113.052994,80.829468   C112.921890,80.418472 112.875816,80.252304 112.883713,79.713943   C112.882324,78.842079 112.826965,78.342400 112.847000,77.523323   C114.261238,76.594437 115.600067,75.984955 116.938896,75.375473   C116.938896,75.375465 117.362518,75.337730 117.574478,75.352524   C117.786430,75.367317 117.697433,75.682236 117.694611,76.079948   C117.727173,76.648277 117.762558,76.818886 117.797943,76.989494  z"
   id="path112" />
<path
   fill="#0E5791"
   opacity="1.000000"
   stroke="none"
   d=" M80.047539,133.248352   C79.852852,132.959686 79.759087,132.638916 79.742950,132.472305   C81.031700,132.925049 82.336601,133.544418 83.887741,134.305283   C85.064453,136.061401 85.994911,137.676010 86.994095,139.635452   C84.789284,137.832520 82.515755,135.684769 80.047539,133.248352  z"
   id="path114" />

<path
   fill="#0E5791"
   opacity="1.000000"
   stroke="none"
   d=" M224.998108,180.080414   C225.833664,180.346603 226.669235,180.612793 227.758392,180.918457   C228.496475,181.541275 228.980972,182.124619 229.708618,182.859863   C230.260651,183.804703 230.569504,184.597626 230.581055,185.628342   C228.521881,183.937561 226.759995,182.008987 224.998108,180.080414  z"
   id="path118" />



<path
   fill="#0E5791"
   opacity="1.000000"
   stroke="none"
   d=" M159.964233,32.621750   C158.415482,31.521597 156.784409,30.095940 155.075851,28.318083   C156.626221,29.409336 158.254059,30.852789 159.964233,32.621750  z"
   id="path126" />






<path
   fill="#11271E"
   opacity="1.000000"
   stroke="none"
   d=" M188.232086,86.153397   C187.667252,87.081673 186.698425,87.989838 185.428040,89.037102   C186.027023,88.161896 186.927551,87.147591 188.232086,86.153397  z"
   id="path140" />










<path
   fill="#11271E"
   opacity="1.000000"
   stroke="none"
   d=" M184.975830,89.224770   C185.056351,89.415222 184.910019,89.760834 184.499924,90.222305   C184.407104,90.018753 184.578033,89.699348 184.975830,89.224770  z"
   id="path162" />

<path
   fill="#201205"
   opacity="1.000000"
   stroke="none"
   d=" M150.160492,229.172516   C150.352692,229.108566 150.679199,229.288025 151.107025,229.750366   C150.903839,229.827484 150.599319,229.621704 150.160492,229.172516  z"
   id="path166" />
<path
   fill="#0B2D14"
   opacity="1.000000"
   stroke="none"
   d=" M118.032547,76.861816   C117.762558,76.818886 117.727173,76.648277 117.766495,76.226944   C118.032425,75.968826 118.223633,75.961441 118.701881,75.952583   C118.748329,76.212128 118.507736,76.473137 118.032547,76.861816  z"
   id="path168" />


<path
   fill="#DADC6A"
   opacity="1.000000"
   stroke="none"
   d=" M151.468079,172.168716   C151.468063,172.168716 151.422089,172.073807 151.357269,171.713821   C151.178711,170.536438 151.064941,169.719040 150.951172,168.901642   C153.772461,164.980942 156.593735,161.060226 160.053101,157.072479   C161.108475,156.980103 161.525742,156.954758 161.965179,157.285004   C158.480927,162.483307 154.974503,167.326019 151.468079,172.168716  z"
   id="path174" />

<path
   fill="#F6EB07"
   opacity="1.000000"
   stroke="none"
   d=" M143.772873,169.457275   C144.618744,169.066788 145.415894,169.038742 146.602417,168.929352   C148.049118,168.904358 149.106430,168.960693 150.557465,168.959351   C151.064941,169.719040 151.178711,170.536438 151.390701,171.753510   C148.955429,172.301773 146.421921,172.450394 143.424423,172.573059   C143.214996,171.637985 143.469574,170.728836 143.772873,169.457275  z"
   id="path178" />

<path
   fill="#102A1F"
   opacity="1.000000"
   stroke="none"
   d=" M161.943008,156.929398   C161.525742,156.954758 161.108475,156.980103 160.378693,156.951508   C160.484985,156.589783 160.903793,156.281998 161.569916,155.883423   C161.817261,155.792648 161.946899,155.939957 161.948578,156.220490   C161.950241,156.501038 161.937592,156.935562 161.964203,156.965332   C161.990814,156.995117 161.943008,156.929398 161.943008,156.929398  z"
   id="path182" />
<path
   fill="#0E5791"
   opacity="1.000000"
   stroke="none"
   d=" M163.300064,49.119522   C164.332825,55.323608 160.644897,59.583927 156.298248,63.805069   C158.332748,59.047844 160.675400,54.163635 163.300064,49.119522  z"
   id="path184" />
<path
   fill="#0E5791"
   opacity="1.000000"
   stroke="none"
   d=" M152.488632,67.732201   C149.858215,68.639832 147.227798,69.547455 144.024292,70.669525   C143.300003,70.981575 143.148819,71.079170 142.997650,71.176765   C142.997650,71.176765 143.014282,70.739052 143.049347,70.520317   C146.306213,68.645737 149.528030,66.989899 153.005035,65.659317   C153.003021,66.567108 152.745819,67.149651 152.488632,67.732201  z"
   id="path186" />

<path
   fill="#0E5791"
   opacity="1.000000"
   stroke="none"
   d=" M83.706619,170.078186   C81.003456,172.092453 77.936485,174.163452 74.492126,176.241608   C75.042961,170.968979 80.623573,172.711380 83.706619,170.078186  z"
   id="path190" />
<path
   fill="#0E5791"
   opacity="1.000000"
   stroke="none"
   d=" M88.967148,143.486389   C89.917358,145.474030 90.867981,147.877991 91.882050,150.656830   C87.777412,149.981827 89.406059,146.510529 88.967148,143.486389  z"
   id="path192" />
<path
   fill="#0E5791"
   opacity="1.000000"
   stroke="none"
   d=" M90.563187,157.096985   C89.902824,159.704346 88.919693,162.432098 87.636383,165.355118   C88.304276,162.772705 89.272354,159.995041 90.563187,157.096985  z"
   id="path194" />
<path
   fill="#0E5791"
   opacity="1.000000"
   stroke="none"
   d=" M69.750504,176.820984   C68.519936,177.173782 67.022667,177.302612 65.246979,177.242401   C66.473640,176.901215 67.978722,176.749115 69.750504,176.820984  z"
   id="path196" />
<path
   fill="#0E5791"
   opacity="1.000000"
   stroke="none"
   d=" M73.134064,132.104721   C73.054497,132.001114 73.475006,132.039459 73.679817,132.085602   C73.884628,132.131760 73.559898,132.314545 73.559898,132.314545   C73.559898,132.314545 73.213631,132.208328 73.134064,132.104721  z"
   id="path198" />
<path
   fill="#0361AC"
   opacity="1.000000"
   stroke="none"
   d=" M224.704208,179.892807   C226.759995,182.008987 228.521881,183.937561 230.622406,185.945465   C230.961060,186.024796 230.992340,186.017578 231.008865,186.425049   C233.839355,195.008301 233.497589,203.212265 231.244934,211.433273   C231.244934,211.433273 231.212631,211.750549 230.775513,211.940613   C229.623276,213.215057 228.908173,214.299454 228.193085,215.383850   C227.208801,216.448868 226.224518,217.513885 224.977524,218.768021   C218.695480,219.537918 213.247971,223.316360 206.689545,221.298416   C197.648422,218.516556 189.993759,214.781403 188.700836,204.057236   C188.527313,202.617981 187.660034,201.262360 187.014984,199.517014   C188.531937,195.292236 190.147919,191.418472 191.875183,187.184875   C192.850754,186.050461 193.953293,185.423813 194.540848,184.477448   C198.545944,178.026550 205.280670,177.865234 211.663864,176.971130   C213.456238,176.720078 215.319214,176.972931 217.611206,176.965088   C220.185181,177.858734 222.297745,178.781967 224.704208,179.892807  z"
   id="path200" />
<path
   fill="#337BB8"
   opacity="1.000000"
   stroke="none"
   d=" M138.192062,199.780823   C137.933823,200.121307 137.517700,199.928528 137.366058,199.390381   C137.123688,191.563629 137.032959,184.275040 137.012878,176.617584   C137.041077,175.501892 136.998642,174.755051 137.058777,173.577545   C137.088318,171.089188 137.015274,169.031525 136.942230,166.973846   C137.081696,164.327316 137.221176,161.680771 137.482483,158.612396   C138.031601,158.667923 138.834244,159.147476 138.831482,159.622360   C138.754303,172.895309 138.595581,186.167801 138.192062,199.780823  z"
   id="path202" />
<path
   fill="#012D51"
   opacity="1.000000"
   stroke="none"
   d=" M139.831299,201.289352   C139.527954,201.435089 138.870300,201.460342 138.101990,201.273102   C138.486542,201.096695 138.981781,201.132782 139.831299,201.289352  z"
   id="path204" />


<path
   fill="#98CA56"
   opacity="1.000000"
   stroke="none"
   d=" M113.983139,81.049873   C114.821770,80.961227 115.660393,80.872574 116.722740,80.857071   C117.038292,88.351547 117.130135,95.772873 116.859833,103.882538   C116.558075,105.490868 116.618477,106.410858 116.678879,107.330849   C116.678871,107.330849 116.723007,107.358437 116.737442,107.379959   C116.088722,107.529282 115.425552,107.657089 114.405884,107.461273   C114.027306,98.441727 114.005226,89.745804 113.983139,81.049873  z"
   id="path210" />
<path
   fill="#A6D384"
   opacity="1.000000"
   stroke="none"
   d=" M113.771721,81.051163   C114.005226,89.745804 114.027306,98.441727 114.099052,107.605560   C113.771507,110.223137 113.394287,112.372795 112.667007,114.742355   C112.531853,104.626472 112.746765,94.290710 112.958427,83.224846   C112.909805,82.318184 112.864441,82.141609 112.894669,81.740868   C112.970253,81.516693 113.138031,81.074303 113.138031,81.074303   C113.138031,81.074303 113.560303,81.052444 113.771721,81.051163  z"
   id="path212" />
<path
   fill="#A6D384"
   opacity="1.000000"
   stroke="none"
   d=" M101.663086,125.382874   C101.723961,124.260124 101.848175,123.517097 101.997116,122.395569   C104.239601,119.547691 106.457359,117.078308 108.837723,114.304688   C110.033035,113.881248 111.065735,113.762054 112.282394,113.972641   C111.854134,115.086090 111.241905,115.869766 110.028992,116.919014   C108.897224,117.748161 108.366150,118.311745 107.835075,118.875328   C106.123466,121.840317 104.411850,124.805313 102.372925,127.908875   C101.939217,127.285835 101.832825,126.524223 101.663086,125.382874  z"
   id="path214" />

<path
   fill="#95C253"
   opacity="1.000000"
   stroke="none"
   d=" M108.147827,118.844833   C108.366150,118.311745 108.897224,117.748161 109.729912,117.138809   C109.507874,117.666809 108.984222,118.240578 108.147827,118.844833  z"
   id="path218" />
<path
   fill="#4B6B31"
   opacity="1.000000"
   stroke="none"
   d=" M117.446289,110.994080   C117.781212,111.015259 117.890129,111.319153 117.804520,111.907928   C117.608353,111.841484 117.478447,111.536140 117.446289,110.994080  z"
   id="path220" />
<path
   fill="#011C33"
   opacity="1.000000"
   stroke="none"
   d=" M143.140472,71.245903   C143.148819,71.079170 143.300003,70.981575 143.716705,70.832642   C143.872360,71.137184 143.639389,71.315094 143.140472,71.245903  z"
   id="path222" />
<path
   fill="#FBF013"
   opacity="1.000000"
   stroke="none"
   d=" M182.924530,103.190269   C184.011307,99.247948 184.265930,94.776260 186.364395,91.477509   C190.293884,85.300430 196.654953,84.922844 203.661865,86.840454   C212.900482,92.871811 212.388977,105.115891 203.074799,110.640739   C202.100479,111.218666 201.107788,111.765587 199.393875,112.427902   C198.099701,113.903854 197.120422,115.257660 197.049057,116.657753   C196.839493,120.768250 196.990768,124.897141 196.688477,128.738373   C196.148148,126.031944 196.041199,123.586815 195.661438,121.184822   C195.183762,118.163551 195.411911,114.375702 193.669296,112.356812   C190.767380,108.994835 186.540665,106.776360 182.912308,104.048996   C182.952805,104.021622 182.907700,104.108360 182.933014,103.879227   C182.958344,103.650085 182.924515,103.190269 182.924530,103.190269  z"
   id="path224" />
<path
   fill="#FBF013"
   opacity="1.000000"
   stroke="none"
   d=" M171.284195,137.000732   C171.284195,137.000732 171.190659,137.373825 170.871078,137.826233   C170.929382,143.565323 171.307266,148.852005 171.685150,154.138687   C171.685150,154.138687 171.858093,154.518082 172.066528,155.011169   C172.648804,156.288101 173.022629,157.071930 173.050064,157.782501   C170.518417,157.481735 168.333145,157.254196 166.243744,156.758148   C166.467590,155.948212 166.595581,155.406799 166.723572,154.865387   C166.723587,154.865387 166.829239,154.917313 167.105896,154.668396   C167.593643,153.464142 167.989136,152.508774 167.989044,151.553436   C167.986664,122.690353 167.945297,93.827278 167.910019,64.964195   C167.910019,64.964195 167.940186,64.940048 168.303925,65.063683   C169.469254,65.282776 170.270844,65.378235 170.993698,65.781021   C170.701187,67.102486 170.487411,68.116638 170.245407,69.588593   C170.206848,88.765045 170.105087,107.484657 170.301697,126.201126   C170.326309,128.544235 171.926910,130.870789 173.206482,133.297546   C181.508301,133.025177 189.839142,136.244461 197.200165,130.874054   C197.731033,131.819855 198.138428,132.413284 198.545807,133.006729   C198.534866,133.217804 198.523941,133.428894 198.131729,134.001923   C197.583008,134.669052 197.415558,134.974243 197.248123,135.279449   C189.193085,135.531555 181.138046,135.783661 172.420670,136.034714   C171.600296,136.356018 171.442245,136.678375 171.284195,137.000732  z"
   id="path226" />
<path
   fill="#A9A50F"
   opacity="1.000000"
   stroke="none"
   d=" M198.727600,132.639099   C198.138428,132.413284 197.731033,131.819855 197.181702,130.875763   C197.039734,130.525131 197.004944,130.537399 197.177170,130.364502   C197.407104,130.040283 197.552200,129.850220 197.505615,129.745117   C197.380920,129.463791 197.174042,129.218887 196.985382,128.975098   C196.970963,128.990692 197.000732,129.018829 197.000732,129.018829   C196.990768,124.897141 196.839493,120.768250 197.049057,116.657753   C197.120422,115.257660 198.099701,113.903854 199.063507,112.548035   C199.278381,119.135262 199.093872,125.703369 198.727600,132.639099  z"
   id="path228" />
<path
   fill="#CACC41"
   opacity="1.000000"
   stroke="none"
   d=" M173.396454,157.855759   C173.022629,157.071930 172.648804,156.288101 172.150177,155.202148   C174.599197,156.055618 177.173004,157.211197 180.034195,158.556381   C181.771240,161.276230 183.220901,163.806488 184.296799,166.556885   C181.822678,162.141342 178.768661,158.630875 173.396454,157.855759  z"
   id="path230" />
<path
   fill="#A9A50F"
   opacity="1.000000"
   stroke="none"
   d=" M171.722717,153.663864   C171.307266,148.852005 170.929382,143.565323 170.798004,138.004120   C171.283112,142.882751 171.521698,148.035904 171.722717,153.663864  z"
   id="path232" />
<path
   fill="#A9A50F"
   opacity="1.000000"
   stroke="none"
   d=" M171.575958,136.866806   C171.442245,136.678375 171.600296,136.356018 171.967316,136.101746   C172.073456,136.357513 171.970581,136.545197 171.575958,136.866806  z"
   id="path234" />
<path
   fill="#A9A50F"
   opacity="1.000000"
   stroke="none"
   d=" M197.536346,135.249573   C197.415558,134.974243 197.583008,134.669052 198.014038,134.296326   C198.126587,134.559082 197.975586,134.889374 197.536346,135.249573  z"
   id="path236" />
<path
   fill="#F38324"
   opacity="1.000000"
   stroke="none"
   d=" M165.500946,209.030960   C167.675797,210.056442 169.435654,211.059601 171.638779,212.397949   C172.537064,212.983398 172.992050,213.233673 173.447037,213.483963   C173.447037,213.483963 173.554184,213.528763 173.534180,213.842255   C173.727661,214.406250 173.941132,214.656738 174.154617,214.907242   C174.154617,214.907242 174.109528,214.910965 174.128387,214.893890   C174.125061,217.353775 174.353836,219.864304 174.027817,222.300598   C173.372787,227.195206 171.095993,231.145401 166.116913,232.740997   C161.713867,234.151993 155.027695,231.738251 152.511688,227.850983   C151.366211,226.081207 150.755127,223.965546 149.932266,221.257141   C149.959045,219.987198 149.955215,219.466888 150.243820,218.758881   C150.862915,217.706329 151.189560,216.841476 151.608643,215.745880   C151.775986,215.033890 151.850891,214.552643 152.225906,213.914093   C153.062897,213.039413 153.599777,212.322006 154.428375,211.549774   C155.804504,210.937683 156.888947,210.380447 157.973373,209.823196   C160.344238,209.551682 162.715088,209.280167 165.500946,209.030960  z"
   id="path238" />
<path
   fill="#F38426"
   opacity="1.000000"
   stroke="none"
   d=" M102.227654,180.945450   C102.102516,180.235184 101.977379,179.524933 102.184052,178.207703   C104.522743,168.774704 110.746460,165.395859 119.097198,164.764648   C119.877655,165.054993 120.658112,165.345352 121.986984,165.842468   C122.997101,166.355240 123.458801,166.661270 124.106873,167.306732   C125.066460,172.648560 125.839676,177.650955 126.526886,182.932770   C125.962288,183.807236 125.483681,184.402283 124.646233,184.994171   C122.536400,186.325363 120.785416,187.659744 118.849197,189.186920   C118.378616,189.594894 118.093262,189.810059 117.807915,190.025208   C115.539696,189.231949 113.243073,188.510132 111.012115,187.623138   C109.182014,186.895554 107.430023,185.971512 105.282990,185.110260   C104.922569,185.085968 104.946846,185.058807 104.863159,184.832611   C104.519112,184.406265 104.258759,184.206116 103.998398,184.005966   C103.998398,184.005966 103.999390,184.000610 103.985092,183.705353   C103.621544,182.951996 103.272278,182.493881 102.923019,182.035782   C102.923019,182.035782 102.994934,182.027893 102.942940,181.815063   C102.760582,181.291687 102.539482,181.072754 102.227654,180.945450  z"
   id="path240" />

<path
   fill="#EBAD76"
   opacity="1.000000"
   stroke="none"
   d=" M149.951370,218.946579   C149.955215,219.466888 149.959045,219.987198 149.902939,220.898804   C140.709152,221.529205 131.575974,221.810516 122.440620,221.955154   C121.270012,221.973694 120.086891,221.285309 118.917595,220.900024   C118.882515,220.888458 118.891548,220.576691 118.963089,220.452911   C119.040031,220.319778 119.215065,220.243347 119.844666,220.008881   C120.675644,219.831055 120.931427,219.666016 121.109398,219.380508   C121.109398,219.380508 121.214333,219.195267 121.581993,219.237762   C131.164551,219.068039 140.379456,218.855835 149.683075,218.720001   C149.771805,218.796341 149.951370,218.946579 149.951370,218.946579  z"
   id="path244" />
<path
   fill="#94785A"
   opacity="1.000000"
   stroke="none"
   d=" M120.798058,219.284271   C120.931427,219.666016 120.675644,219.831055 120.106300,219.901428   C119.870567,219.927277 119.872070,219.593048 119.855537,219.426712   C120.054901,219.236267 120.270805,219.212158 120.798058,219.284271  z"
   id="path246" />
<path
   fill="#F38426"
   opacity="1.000000"
   stroke="none"
   d=" M115.510437,205.480011   C115.529320,205.519287 115.491562,205.440720 115.510437,205.480011  z"
   id="path248" />
<path
   fill="#F38426"
   opacity="1.000000"
   stroke="none"
   d=" M115.497437,208.523804   C115.460243,208.542099 115.534637,208.505524 115.497437,208.523804  z"
   id="path250" />


<path
   fill="#0E5791"
   opacity="1.000000"
   stroke="none"
   d=" M231.513611,211.312317   C233.497589,203.212265 233.839355,195.008301 230.998367,186.433716   C235.779388,190.131363 234.756790,195.841797 235.253265,201.607132   C235.215652,202.784134 235.082413,203.512192 234.735901,204.870544   C234.047806,207.007690 233.572998,208.514587 233.098206,210.021484   C232.659561,210.411453 232.220917,210.801407 231.513611,211.312317  z"
   id="path256" />
<path
   fill="#012135"
   opacity="1.000000"
   stroke="none"
   d=" M233.397964,209.919464   C233.572998,208.514587 234.047806,207.007690 234.737030,205.241333   C234.533554,206.593750 234.115646,208.205612 233.397964,209.919464  z"
   id="path258" />
<path
   fill="#0E5791"
   opacity="1.000000"
   stroke="none"
   d=" M228.506531,215.264069   C228.908173,214.299454 229.623276,213.215057 230.686554,212.072937   C230.296463,213.058228 229.558228,214.101273 228.506531,215.264069  z"
   id="path260" />
<path
   fill="#F6EB07"
   opacity="1.000000"
   stroke="none"
   d=" M173.050064,157.782501   C178.768661,158.630875 181.822678,162.141342 184.217316,166.897064   C184.585236,168.744598 184.658875,170.472107 184.294907,172.749115   C183.633575,174.513168 183.409851,175.727737 183.186127,176.942307   C180.402557,183.541351 175.157547,186.509384 168.282791,186.251663   C161.217529,185.986816 156.100479,182.530640 153.631180,175.625305   C153.262451,174.594162 152.532440,173.692200 151.718826,172.449600   C154.974503,167.326019 158.480927,162.483307 161.965179,157.285004   C161.943008,156.929398 161.990814,156.995117 162.364288,157.111816   C163.874481,157.161224 165.011185,157.093933 166.147888,157.026672   C168.333145,157.254196 170.518417,157.481735 173.050064,157.782501  z"
   id="path262" />
<path
   fill="#CACC41"
   opacity="1.000000"
   stroke="none"
   d=" M183.444061,176.771027   C183.409851,175.727737 183.633575,174.513168 184.137939,173.155151   C184.179718,174.207718 183.940842,175.403748 183.444061,176.771027  z"
   id="path264" />
<path
   fill="#D5D01D"
   opacity="1.000000"
   stroke="none"
   d=" M170.273621,69.130783   C170.487411,68.116638 170.701187,67.102486 171.290970,65.716934   C172.072693,65.314392 172.478394,65.283241 173.253906,65.449074   C181.051315,65.788773 188.479446,66.058434 195.906281,66.026375   C200.322021,66.007309 204.735703,65.513420 209.470032,65.226921   C210.215607,65.201378 210.641479,65.181931 211.294830,65.232979   C211.522324,65.303482 211.977936,65.442398 212.048904,65.777222   C212.607574,67.515007 212.944885,68.994133 213.609955,70.307259   C216.022720,75.070938 219.755157,77.809212 225.284363,78.133354   C230.881516,78.461479 234.338013,75.322723 236.905563,71.107590   C239.653290,66.596619 238.188034,61.840012 236.805542,57.144028   C236.911606,57.060993 237.115723,56.885147 237.115723,56.885147   C241.607803,62.342377 241.680374,68.881996 237.311508,74.529663   C232.862045,80.281525 224.907455,81.925285 217.987976,78.444344   C216.831619,77.862610 215.842102,76.949203 214.449936,76.053375   C213.938278,75.364479 213.752167,74.811272 213.314301,74.103363   C213.103485,73.620613 213.032104,73.319122 212.673279,72.882919   C211.577423,71.239021 210.656708,69.756401 208.948486,68.208008   C196.185562,68.139809 184.210159,68.137367 171.950348,68.154251   C171.201813,68.492645 170.737717,68.811714 170.273621,69.130783  z"
   id="path266" />
<path
   fill="#D9DE57"
   opacity="1.000000"
   stroke="none"
   d=" M217.584518,55.075874   C218.329391,54.309898 219.074265,53.543922 220.035553,52.536953   C225.326218,51.240925 230.320770,50.797523 234.896118,54.616962   C234.977005,55.040863 234.782379,55.275429 234.382843,55.192146   C228.517059,55.097870 223.050781,55.086868 217.584518,55.075874  z"
   id="path268" />
<path
   fill="#D5D01D"
   opacity="1.000000"
   stroke="none"
   d=" M236.107697,55.872681   C236.383270,56.053333 236.658859,56.233990 237.025085,56.649895   C237.115723,56.885147 236.911606,57.060993 236.684052,57.007366   C236.291794,56.780945 236.122665,56.612614 235.973633,56.300568   C235.998184,56.152393 236.107697,55.872677 236.107697,55.872681  z"
   id="path270" />
<path
   fill="#D9DE57"
   opacity="1.000000"
   stroke="none"
   d=" M235.078247,54.926949   C235.535553,54.877773 235.788467,55.074898 236.022949,55.638535   C236.107697,55.872677 235.998184,56.152393 235.764236,56.111706   C235.280991,55.805824 235.031677,55.540627 234.782379,55.275429   C234.782379,55.275429 234.977005,55.040863 235.078247,54.926949  z"
   id="path272" />
<path
   fill="#8BC044"
   opacity="1.000000"
   stroke="none"
   d=" M94.702454,87.931374   C95.036400,88.065170 95.203506,88.360954 95.351524,88.444275   C96.109146,89.289101 96.718750,90.050613 97.564354,90.985741   C99.678467,98.024086 98.338768,103.119698 93.820770,106.295891   C89.807709,109.117119 83.794891,109.116165 79.944260,105.735680   C78.065926,104.086693 76.974747,101.541077 75.247391,99.194893   C78.578789,95.241791 82.190063,91.495117 85.899139,87.427963   C88.787468,87.337509 91.577988,87.567543 94.702454,87.931374  z"
   id="path274" />





<path
   fill="#8CC342"
   opacity="1.000000"
   stroke="none"
   d=" M30.349987,90.131607   C27.067471,88.751816 24.162588,87.283676 21.122684,85.500214   C20.617376,83.932152 20.340406,82.642387 19.860466,81.433189   C17.895754,76.483124 18.985580,71.940926 22.954185,68.461578   C24.302742,67.279274 25.514236,65.940628 26.889427,64.380814   C34.015633,60.618752 43.442245,65.111115 43.983147,72.698166   C44.573696,73.851173 45.285221,74.426270 46.076111,75.329086   C46.251125,76.323029 46.346767,76.989243 46.442413,77.655457   C45.465313,79.267509 44.488205,80.879555 42.925270,82.804947   C41.274208,84.502655 40.208973,85.887032 39.143738,87.271400   C37.963306,87.958282 36.782875,88.645164 35.067131,89.449081   C34.036247,89.750893 33.540672,89.935654 33.045094,90.120415   C32.272602,90.094688 31.500113,90.068970 30.349987,90.131607  z"
   id="path286" />
<path
   fill="#ADD58D"
   opacity="1.000000"
   stroke="none"
   d=" M46.862385,77.704834   C46.346767,76.989243 46.251125,76.323029 46.094265,75.113998   C46.033051,74.571182 46.071835,74.141266 46.071835,74.141266   C68.554329,74.087029 91.036827,74.022545 113.519333,74.015678   C114.426620,74.015396 115.334076,74.559837 116.590172,75.112976   C115.600067,75.984955 114.261238,76.594437 112.403763,77.518341   C96.657494,77.862663 81.429871,77.892555 66.202240,77.922440   C64.860321,77.560257 63.518398,77.198074 61.770744,77.213127   C61.197918,77.705063 61.030827,77.819748 60.863731,77.934441   C56.336609,77.874367 51.809483,77.814293 46.862385,77.704834  M81.421135,76.531937   C81.421135,76.531937 81.532265,76.473289 81.421135,76.531937  z"
   id="path288" />
<path
   fill="#71973D"
   opacity="1.000000"
   stroke="none"
   d=" M39.470825,87.184280   C40.208973,85.887032 41.274208,84.502655 42.681885,83.062515   C41.948849,84.370216 40.873379,85.733688 39.470825,87.184280  z"
   id="path290" />
<path
   fill="#153312"
   opacity="1.000000"
   stroke="none"
   d=" M33.199127,90.271912   C33.540672,89.935654 34.036247,89.750893 34.791481,89.656380   C34.485142,89.972214 33.919151,90.197807 33.199127,90.271912  z"
   id="path292" />
<path
   fill="#71973D"
   opacity="1.000000"
   stroke="none"
   d=" M60.897495,78.243912   C61.030827,77.819748 61.197918,77.705063 61.660500,77.518578   C61.984745,78.023651 62.013496,78.600525 62.006393,79.608971   C61.624111,79.544823 61.277683,79.049103 60.897495,78.243912  z"
   id="path294" />
<path
   fill="#95C253"
   opacity="1.000000"
   stroke="none"
   d=" M45.855961,73.956192   C46.071835,74.141266 46.033051,74.571182 46.014900,74.786270   C45.285221,74.426270 44.573696,73.851173 44.048626,73.061996   C44.703419,73.155640 45.171753,73.463379 45.855961,73.956192  z"
   id="path296" />



<path
   fill="#73983C"
   opacity="1.000000"
   stroke="none"
   d=" M65.799530,79.138969   C65.999603,79.455284 65.998726,79.912407 65.878227,80.692596   C65.705261,80.437042 65.651924,79.858406 65.799530,79.138969  z"
   id="path304" />
<path
   fill="#73983C"
   opacity="1.000000"
   stroke="none"
   d=" M65.598549,91.075218   C65.769142,91.140366 65.816666,91.317642 65.806259,91.763939   C65.425591,91.823509 65.334641,91.541634 65.598549,91.075218  z"
   id="path306" />
<path
   fill="#B86F2F"
   opacity="1.000000"
   stroke="none"
   d=" M173.339188,213.230560   C172.992050,213.233673 172.537064,212.983398 171.989975,212.468597   C172.342377,212.461761 172.786865,212.719467 173.339188,213.230560  z"
   id="path308" />
<path
   fill="#B86F2F"
   opacity="1.000000"
   stroke="none"
   d=" M174.158722,214.656006   C173.941132,214.656738 173.727661,214.406250 173.532288,213.900299   C173.754547,213.898163 173.958679,214.151459 174.158722,214.656006  z"
   id="path310" />
<path
   fill="#FCF105"
   opacity="1.000000"
   stroke="none"
   d=" M234.382843,55.192146   C235.031677,55.540627 235.280991,55.805824 235.739685,56.259880   C236.122665,56.612614 236.291794,56.780945 236.577972,57.090401   C238.188034,61.840012 239.653290,66.596619 236.905563,71.107590   C234.338013,75.322723 230.881516,78.461479 225.284363,78.133354   C219.755157,77.809212 216.022720,75.070938 213.609955,70.307259   C212.944885,68.994133 212.607574,67.515007 212.031509,65.315811   C211.866470,64.223564 211.789810,63.927563 211.713135,63.631557   C211.713135,63.631557 211.725677,63.746235 212.032379,63.771423   C213.951157,61.237064 215.563217,58.677513 217.234741,55.867050   C217.335098,55.449169 217.375992,55.282200 217.416885,55.115231   C217.416885,55.115231 217.486160,55.023457 217.535339,55.049664   C223.050781,55.086868 228.517059,55.097870 234.382843,55.192146  z"
   id="path312" />
<path
   fill="#F0F687"
   opacity="1.000000"
   stroke="none"
   d=" M172.884109,65.252098   C172.478394,65.283241 172.072693,65.314392 171.369705,65.409615   C170.270844,65.378235 169.469254,65.282776 168.285889,65.056595   C167.869904,64.750397 167.835693,64.574921 167.906738,64.152458   C181.972168,63.904556 195.932327,63.903652 210.428223,64.242477   C210.998398,64.775635 211.032867,64.969055 211.067352,65.162476   C210.641479,65.181931 210.215607,65.201378 208.990875,65.155334   C196.422699,65.143921 184.653412,65.198006 172.884109,65.252098  z"
   id="path314" />
<path
   fill="#F7F140"
   opacity="1.000000"
   stroke="none"
   d=" M217.175278,56.117958   C215.563217,58.677513 213.951157,61.237064 211.974884,63.766830   C213.007568,61.370186 214.404449,59.003330 216.227356,56.338135   C216.827332,56.065849 217.001297,56.091904 217.175278,56.117958  z"
   id="path316" />
<path
   fill="#F7F140"
   opacity="1.000000"
   stroke="none"
   d=" M211.294830,65.232979   C211.032867,64.969055 210.998398,64.775635 210.881134,64.299324   C210.929733,63.902714 211.061157,63.788990 211.452866,63.653412   C211.789810,63.927563 211.866470,64.223564 211.960541,64.980980   C211.977936,65.442398 211.522324,65.303482 211.294830,65.232979  z"
   id="path318" />
<path
   fill="#D9DE57"
   opacity="1.000000"
   stroke="none"
   d=" M217.234741,55.867050   C217.001297,56.091904 216.827332,56.065849 216.389694,56.030136   C216.333832,55.695545 216.541641,55.370613 217.083160,55.080456   C217.375992,55.282200 217.335098,55.449169 217.234741,55.867050  z"
   id="path320" />
<path
   fill="#8AC140"
   opacity="1.000000"
   stroke="none"
   d=" M116.917854,107.064957   C116.618477,106.410858 116.558075,105.490868 116.728310,104.296036   C117.024902,104.947151 117.090866,105.873116 116.917854,107.064957  z"
   id="path322" />

<path
   fill="#DFAE7F"
   opacity="1.000000"
   stroke="none"
   d=" M118.884392,164.402908   C110.746460,165.395859 104.522743,168.774704 102.258736,177.852234   C102.015305,176.390137 102.029007,174.676544 102.062866,172.537018   C102.433952,171.661255 102.784882,171.211456 103.165657,170.462524   C103.834900,169.392242 104.474304,168.621124 105.210197,167.561295   C109.163910,163.723251 113.816566,163.463730 118.884392,164.402908  z"
   id="path326" />



<path
   fill="#18310C"
   opacity="1.000000"
   stroke="none"
   d=" M112.218727,83.000427   C112.139839,82.726280 112.301033,82.483604 112.657959,82.114471   C112.864441,82.141609 112.909805,82.318184 112.895096,82.761833   C112.835014,83.028915 112.424202,83.008919 112.218727,83.000427  z"
   id="path334" />
<path
   fill="#B86F2F"
   opacity="1.000000"
   stroke="none"
   d=" M102.932182,182.336212   C103.272278,182.493881 103.621544,182.951996 103.982605,183.704865   C103.643387,183.545303 103.292366,183.090973 102.932182,182.336212  z"
   id="path336" />
<path
   fill="#B86F2F"
   opacity="1.000000"
   stroke="none"
   d=" M102.189430,181.176834   C102.539482,181.072754 102.760582,181.291687 102.916031,181.839233   C102.941116,182.076248 102.533066,181.994247 102.333488,181.935577   C102.133911,181.876923 102.151207,181.408218 102.189430,181.176834  z"
   id="path338" />
<path
   fill="#B86F2F"
   opacity="1.000000"
   stroke="none"
   d=" M104.035828,184.271317   C104.258759,184.206116 104.519112,184.406265 104.861008,184.843719   C104.652786,184.899582 104.363022,184.718124 104.035828,184.271317  z"
   id="path340" />

<path
   fill="#B7B82F"
   opacity="1.000000"
   stroke="none"
   d=" M182.933014,103.879227   C182.604813,103.883682 182.301941,103.659004 182.062225,103.138901   C182.125412,102.843468 182.523651,103.020447 182.724091,103.105362   C182.924515,103.190269 182.958344,103.650085 182.933014,103.879227  z"
   id="path344" />
<path
   fill="#EFED50"
   opacity="1.000000"
   stroke="none"
   d=" M167.530670,65.178230   C167.945297,93.827278 167.986664,122.690353 167.989044,151.553436   C167.989136,152.508774 167.593643,153.464142 167.076355,154.719330   C166.825821,129.288055 166.873199,103.556946 166.945511,77.825897   C166.957153,73.681190 167.079926,69.536804 167.530670,65.178230  z"
   id="path346" />
<path
   fill="#DADC6A"
   opacity="1.000000"
   stroke="none"
   d=" M166.243744,156.758148   C165.011185,157.093933 163.874481,157.161224 162.337677,157.082031   C161.937592,156.935562 161.950241,156.501038 162.014282,156.293335   C163.401291,155.698456 164.724258,155.311249 166.385391,154.894714   C166.595581,155.406799 166.467590,155.948212 166.243744,156.758148  z"
   id="path348" />

<path
   fill="#B86F2F"
   opacity="1.000000"
   stroke="none"
   d=" M124.106873,167.306717   C124.360374,166.992615 124.800247,167.017960 125.576729,167.113251   C125.913338,167.183228 125.984772,167.104858 125.984711,167.348083   C126.292450,167.787186 126.600266,167.983047 126.908081,168.178909   C126.908081,168.178909 126.921066,168.055603 126.870491,168.402237   C127.200943,169.319351 127.581970,169.889832 127.962997,170.460312   C127.962997,170.460312 127.949211,170.670425 128.021378,170.744415   C127.788788,174.610107 127.484039,178.401810 126.896088,182.423431   C125.839676,177.650955 125.066460,172.648560 124.106873,167.306717  z"
   id="path352" />
<path
   fill="#241506"
   opacity="1.000000"
   stroke="none"
   d=" M127.945847,170.105652   C127.581970,169.889832 127.200943,169.319351 126.808609,168.398544   C127.174438,168.615799 127.551567,169.183395 127.945847,170.105652  z"
   id="path354" />
<path
   fill="#241506"
   opacity="1.000000"
   stroke="none"
   d=" M126.805161,167.937393   C126.600266,167.983047 126.292450,167.787186 125.950653,167.307465   C126.178528,167.247681 126.440384,167.471786 126.805161,167.937393  z"
   id="path356" />
<path
   fill="#B7B82F"
   opacity="1.000000"
   stroke="none"
   d=" M187.099854,110.927765   C185.735565,108.873779 184.371262,106.819801 182.939392,104.421097   C186.540665,106.776360 190.767380,108.994835 193.669296,112.356812   C195.411911,114.375702 195.183762,118.163551 195.661438,121.184822   C196.041199,123.586815 196.148148,126.031944 196.688477,128.738373   C197.000732,129.018829 196.970963,128.990692 196.941132,129.369736   C196.942505,130.011642 196.973724,130.274521 197.004944,130.537399   C197.004944,130.537399 197.039734,130.525131 197.058212,130.523407   C189.839142,136.244461 181.508301,133.025177 173.584320,133.202911   C173.803818,132.948761 174.054672,132.881775 174.305511,132.814789   C174.568420,132.684250 174.746140,132.479706 174.910797,132.006195   C181.069565,131.811264 187.156204,131.811264 193.927002,131.811264   C193.927002,126.066124 194.280182,120.793686 193.698059,115.626617   C193.536789,114.195221 190.596802,113.076881 188.508453,111.849838   C188.085220,111.884773 188.134644,111.956589 188.076981,111.677399   C187.685669,111.241859 187.352020,111.085510 187.039185,110.955475   C187.059982,110.981781 187.099854,110.927765 187.099854,110.927765  z"
   id="path358" />
<path
   fill="#A29C12"
   opacity="1.000000"
   stroke="none"
   d=" M173.969940,132.599472   C174.054672,132.881775 173.803818,132.948761 173.175140,133.110382   C171.926910,130.870789 170.326309,128.544235 170.301697,126.201126   C170.105087,107.484657 170.206848,88.765045 170.245407,69.588593   C170.737717,68.811714 171.201813,68.492645 171.950348,68.154251   C172.087372,73.774902 171.838379,79.414413 171.812775,85.054932   C171.750809,98.699211 171.713699,112.344910 171.875580,125.987556   C171.900940,128.126404 173.020676,130.252289 173.969940,132.599472  z"
   id="path360" />
<path
   fill="#FBF013"
   opacity="1.000000"
   stroke="none"
   d=" M197.177170,130.364502   C196.973724,130.274521 196.942505,130.011642 196.955536,129.354156   C197.174042,129.218887 197.380920,129.463791 197.505615,129.745117   C197.552200,129.850220 197.407104,130.040283 197.177170,130.364502  z"
   id="path362" />

<path
   fill="#EBAD76"
   opacity="1.000000"
   stroke="none"
   d=" M149.990829,215.998779   C150.239380,215.955872 150.493500,215.908752 151.131927,215.919113   C151.189560,216.841476 150.862915,217.706329 150.243820,218.758881   C149.951370,218.946579 149.771805,218.796341 149.691223,218.382095   C149.739716,217.306015 149.868790,216.644180 149.997879,215.982346   C149.997879,215.982346 149.996399,215.994568 149.990829,215.998779  z"
   id="path366" />
<path
   fill="#B86F2F"
   opacity="1.000000"
   stroke="none"
   d=" M124.646233,184.994171   C123.251053,186.345642 121.497025,187.693939 119.388718,189.018188   C120.785416,187.659744 122.536400,186.325363 124.646233,184.994171  z"
   id="path368" />


<path
   fill="#F7F140"
   opacity="1.000000"
   stroke="none"
   d=" M173.253906,65.449074   C184.653412,65.198006 196.422699,65.143921 208.671158,65.161423   C204.735703,65.513420 200.322021,66.007309 195.906281,66.026375   C188.479446,66.058434 181.051315,65.788773 173.253906,65.449074  z"
   id="path374" />

<path
   fill="#95C253"
   opacity="1.000000"
   stroke="none"
   d=" M81.476700,76.502609   C81.532265,76.473289 81.421135,76.531937 81.476700,76.502609  z"
   id="path378" />
<path
   fill="#051A1A"
   opacity="1.000000"
   stroke="none"
   d=" M188.076981,111.677399   C187.862305,111.753036 187.589981,111.549484 187.167999,111.137543   C187.352020,111.085510 187.685669,111.241859 188.076981,111.677399  z"
   id="path380" />
</svg>
