<?xml version="1.0" encoding="UTF-8" standalone="no"?>
<svg
   version="1.0"
   width="279pt"
   height="200pt"
   viewBox="0 0 279 200"
   preserveAspectRatio="xMidYMid meet"
   id="svg90"
   sodipodi:docname="regea-logo.svg"
   inkscape:version="1.1.1 (3bf5ae0d25, 2021-09-20)"
   xmlns:inkscape="http://www.inkscape.org/namespaces/inkscape"
   xmlns:sodipodi="http://sodipodi.sourceforge.net/DTD/sodipodi-0.dtd"
   xmlns="http://www.w3.org/2000/svg"
   xmlns:svg="http://www.w3.org/2000/svg">
  <defs
     id="defs94" />
  <sodipodi:namedview
     id="namedview92"
     pagecolor="#505050"
     bordercolor="#eeeeee"
     borderopacity="1"
     inkscape:pageshadow="0"
     inkscape:pageopacity="0"
     inkscape:pagecheckerboard="0"
     inkscape:document-units="pt"
     showgrid="false"
     inkscape:zoom="1.2768817"
     inkscape:cx="180.90947"
     inkscape:cy="69.309474"
     inkscape:window-width="1920"
     inkscape:window-height="1057"
     inkscape:window-x="-8"
     inkscape:window-y="-8"
     inkscape:window-maximized="1"
     inkscape:current-layer="svg90" />
  <g
     id="g408"
     transform="translate(-0.5,59.830477)">
    <path
       d="m 154.6,1 c -6.6,2.1 -10.7,8.5 -10.7,16.6 0,6.1 2,10.5 6.4,13.8 3.4,2.5 14.7,3.4 20.1,1.6 3.2,-1 3.6,-1.5 3.6,-4.6 v -3.5 l -2.9,1.5 c -7.9,4.1 -17,2.4 -19.6,-3.6 -0.7,-1.8 -1,-3.7 -0.6,-4.1 0.5,-0.5 6.1,-0.7 12.5,-0.5 l 11.6,0.3 v -3.8 c 0,-5.1 -2.2,-9.9 -5.4,-12 -3.2,-2.1 -11,-3 -15,-1.7 z m 11.6,6.7 c 0.8,1 1.8,2.6 2.1,3.5 0.6,1.6 -0.2,1.8 -8.9,1.8 -10.1,0 -10.3,-0.1 -6.1,-4.8 2.6,-2.8 10.6,-3.2 12.9,-0.5 z"
       id="path2"
       style="fill:#ffffff;stroke:none;stroke-width:0.1" />
    <path
       d="m 189.6,1 c -3.8,1.2 -7.5,4.7 -9.2,8.7 -3.2,7.4 -0.3,18.7 5.5,21.7 3.8,2 10.3,2 14.2,0 3,-1.5 3,-1.5 2.7,1 l -0.3,2.5 -23,0.2 c -12.6,0.1 -49,0.1 -80.7,0.1 L 41,35 40.8,17.7 40.6,0.5 40,17.8 39.5,35.2 20.2,35 C 7.5,35 1,35.3 1,36 c 0,0.6 6.7,1 19.5,1 H 40 v 4.9 4.9 l -4.7,1.1 c -6.8,1.7 -28.4,8.4 -28,8.7 0.1,0.2 6.1,-0.8 13.2,-2.1 C 27.7,53.1 34.9,52 36.7,52 h 3.2 l 0.4,13.7 0.3,13.8 0.2,-14.1 0.2,-14.1 4.8,-0.7 c 2.6,-0.3 12.3,-1 21.5,-1.6 24.7,-1.4 49.8,0.4 75.8,5.4 28.4,5.4 65,4.5 97.9,-2.6 8.9,-1.9 34.4,-9.8 33.7,-10.4 -0.1,-0.2 -6.1,0.8 -13.2,2.1 -24.2,4.4 -40.4,5.9 -66.5,5.9 -25.4,0 -33.5,-0.7 -56,-4.9 C 123.1,41.5 109.6,40 97.5,40 85.8,40 61.4,42.5 49.7,44.8 L 41,46.6 V 41.8 37 h 80.2 c 63.9,0 79.9,0.3 79,1.2 -1.5,1.5 -9.1,1.7 -14,0.5 -3.3,-0.9 -3.3,-0.9 -3,2.4 0.3,3.1 0.6,3.4 4.8,4.1 8.3,1.5 17.1,-1.1 19.2,-5.7 l 1.1,-2.5 h 35.4 c 19.4,0 35.3,-0.4 35.3,-0.8 0,-0.5 -15.6,-0.9 -34.6,-0.9 H 209.7 L 209.9,18.1 210.1,0.9 205.8,1 C 203.4,1.1 199.5,0.9 197,0.6 194.5,0.3 191.2,0.5 189.6,1 Z m 11.2,5.6 c 2.1,0.6 2.2,1.2 2.2,9.4 v 8.8 l -3.1,1.1 C 191,29 186,25.7 186,16.8 186,8.4 192,4.3 200.8,6.6 Z"
       id="path4"
       style="fill:#ffffff;stroke:none;stroke-width:0.1" />
    <path
       d="m 226.5,0.7 c -3.5,0.9 -8.7,5.5 -10.1,8.9 -1.9,4.6 -1.8,12.2 0.4,16.4 3.5,7 14.7,10 25.3,6.8 3.6,-1 3.9,-1.4 3.9,-4.6 0,-2.9 -0.3,-3.3 -1.7,-2.7 -6.4,2.7 -10.6,3.7 -13.9,3 -4.5,-0.8 -8.4,-4.6 -8.4,-8 v -2.6 l 12,0.3 12,0.3 V 14 C 246,8.7 244.5,5.4 241,2.8 238.4,0.9 230.1,-0.3 226.5,0.7 Z m 10.1,6.1 c 1.1,0.7 3.4,4.5 3.4,5.6 0,0.3 -4,0.6 -9,0.6 -5.6,0 -9,-0.4 -9,-1 0,-0.6 1.1,-2.2 2.5,-3.5 1.8,-1.9 3.5,-2.5 6.7,-2.5 2.4,0 4.8,0.4 5.4,0.8 z"
       id="path6"
       style="fill:#ffffff;stroke:none;stroke-width:0.1" />
    <path
       d="m 257.5,0.8 c -3.7,0.6 -4,1 -4.3,4.1 -0.3,3.1 -0.2,3.3 2,2.7 1.3,-0.4 4.9,-1 8.1,-1.3 4.7,-0.5 6.1,-0.2 7.7,1.2 3.1,2.8 2.5,4.5 -1.5,4.5 -6,0 -13.8,2.2 -16.1,4.5 -4.5,4.5 -4.3,10.8 0.3,15.1 2.1,1.9 3.7,2.4 8,2.4 3,0 6.7,-0.7 8.3,-1.5 2.5,-1.3 2.9,-1.3 3.4,0 0.3,0.8 1.7,1.5 3.1,1.5 H 279 V 20.6 c 0,-7.4 -0.3,-14.2 -0.6,-15.1 -1.5,-3.7 -12,-6.1 -20.9,-4.7 z M 273,21.4 c 0,4 -0.3,4.5 -3.2,5.7 -4.1,1.7 -9.2,1.7 -11.2,0 -1.9,-1.6 -2.1,-5.4 -0.3,-7 1.6,-1.2 7.9,-2.9 12,-3 2.5,-0.1 2.7,0.1 2.7,4.3 z"
       id="path8"
       style="fill:#ffffff;stroke:none;stroke-width:0.1" />
    <path
       d="m 121,17.6 v 16.5 l 3.3,-0.3 3.2,-0.3 0.3,-11.7 0.3,-11.6 4.1,-1.7 c 2.7,-1 5.4,-1.4 7.5,-1 3.2,0.6 3.3,0.5 3.3,-3 0,-3.4 -0.1,-3.5 -3.8,-3.5 -2.1,0 -5.4,0.9 -7.5,1.9 -3.6,1.8 -3.7,1.8 -3.7,0 C 128,1.4 127.3,1 124.5,1 H 121 Z"
       id="path10"
       style="fill:#ffffff;stroke:none;stroke-width:0.1" />
    <path
       d="m 48,71.4 c -1.3,3.5 0.3,7.6 3,7.6 1.5,0 2,-0.7 2,-2.5 0,-1.4 -0.4,-2.5 -0.9,-2.5 -0.5,0 -0.7,0.9 -0.4,2 0.4,1.4 0,2 -1.1,2 C 49.4,78 49,77.1 49,74.6 49,70.8 50.7,69 52.2,71.1 53,72.3 53.1,72.2 52.7,71 52,68.4 49.1,68.7 48,71.4 Z"
       id="path12"
       style="fill:#ffffff;stroke:none;stroke-width:0.1" />
    <path
       d="m 54.8,70.2 c -0.3,0.7 -0.3,3 0,5 0.3,3.1 0.8,3.8 2.6,3.7 1.6,-0.1 1.7,-0.2 0.4,-0.6 -1,-0.2 -1.8,-1.3 -1.8,-2.4 0,-1.1 0.4,-1.8 0.9,-1.4 0.5,0.3 1.2,0.1 1.6,-0.5 0.3,-0.5 -0.1,-1 -0.9,-1 -2.2,0 -2,-2.7 0.2,-3.3 1.3,-0.4 1.2,-0.5 -0.4,-0.6 -1.2,0 -2.4,0.5 -2.6,1.1 z"
       id="path14"
       style="fill:#ffffff;stroke:none;stroke-width:0.1" />
    <path
       d="m 61.2,70.2 c -3,3 -0.3,9.8 3.3,8.4 1.2,-0.4 1.5,-1.7 1.3,-4.8 -0.3,-4.5 -2.2,-6 -4.6,-3.6 z m 3.3,3.8 c 0,1.8 -0.6,3.5 -1.2,3.7 C 62.4,78 62,76.9 62,74 c 0,-2.9 0.4,-4 1.3,-3.8 0.6,0.3 1.2,2 1.2,3.8 z"
       id="path16"
       style="fill:#ffffff;stroke:none;stroke-width:0.1" />
    <path
       d="m 67.4,70.6 c 0.3,0.9 0.6,3.1 0.6,5 0,2.9 0.3,3.4 2.3,3.3 1.6,-0.1 1.8,-0.2 0.5,-0.6 C 69.4,78 69,76.8 69,73.4 69,70.9 68.5,69 67.9,69 c -0.6,0 -0.8,0.7 -0.5,1.6 z"
       id="path18"
       style="fill:#ffffff;stroke:none;stroke-width:0.1" />
    <path
       d="m 73.4,71.4 c -1,4.3 0.3,7.8 2.9,7.4 1.9,-0.3 2.2,-0.9 2.2,-4.8 0,-3.9 -0.3,-4.5 -2.2,-4.8 -1.7,-0.3 -2.4,0.3 -2.9,2.2 z m 4.1,2.6 c 0,3.8 -2,5.2 -3,2.1 -0.8,-2.7 0.3,-6.3 1.8,-5.8 0.7,0.2 1.2,1.9 1.2,3.7 z"
       id="path20"
       style="fill:#ffffff;stroke:none;stroke-width:0.1" />
    <path
       d="m 80.4,71.4 c -1.1,4.3 0.3,7.6 3.1,7.6 2,0 2.5,-0.5 2.5,-2.5 0,-1.7 -0.5,-2.5 -1.7,-2.5 -1.5,0 -1.6,0.2 -0.3,1 1.2,0.7 1.2,1.2 0.3,2.1 -1.7,1.7 -2.6,0.5 -2.5,-3.2 0.1,-3.9 0.7,-4.5 2.8,-2.8 1.5,1.2 1.7,1.2 1.2,-0.1 -0.2,-0.8 -1.4,-1.6 -2.6,-1.8 -1.6,-0.2 -2.3,0.3 -2.8,2.2 z"
       id="path22"
       style="fill:#ffffff;stroke:none;stroke-width:0.1" />
    <path
       d="m 87.3,74 c 0,3 0.2,4.3 0.4,2.8 0.2,-1.6 0.2,-4 0,-5.5 C 87.5,69.7 87.3,71 87.3,74 Z"
       id="path24"
       style="fill:#ffffff;stroke:none;stroke-width:0.1" />
    <path
       d="m 91.3,71 c -0.6,1.4 -1.3,3.8 -1.7,5.5 -0.6,2.9 -0.6,2.9 0.9,1 1.6,-2 1.6,-2 3.1,-0.1 1.3,1.9 1.4,1.9 1.4,-0.5 -0.1,-1.3 -0.7,-3.8 -1.4,-5.4 l -1.4,-3 z m 1.7,2.5 c 0,0.8 -0.4,1.5 -1,1.5 -0.5,0 -0.7,-0.7 -0.4,-1.5 0.4,-0.8 0.8,-1.5 1,-1.5 0.2,0 0.4,0.7 0.4,1.5 z"
       id="path26"
       style="fill:#ffffff;stroke:none;stroke-width:0.1" />
    <path
       d="m 100.5,70.2 c -0.2,0.7 -0.3,2.9 -0.2,4.8 0.2,3 0.6,3.5 2.7,3.7 1.4,0.1 1.8,0 0.8,-0.3 -1,-0.3 -1.8,-1.4 -1.8,-2.5 0,-1.1 0.4,-1.8 0.9,-1.4 0.5,0.3 1.2,0.1 1.6,-0.5 0.3,-0.5 -0.1,-1 -0.9,-1 -2.2,0 -2,-2.7 0.2,-3.3 1.2,-0.4 1.1,-0.5 -0.6,-0.6 -1.2,0 -2.4,0.5 -2.7,1.1 z"
       id="path28"
       style="fill:#ffffff;stroke:none;stroke-width:0.1" />
    <path
       d="m 106.7,70.5 c -1,2.5 -0.8,7.3 0.3,8 0.6,0.4 1,-0.6 1.1,-2.2 l 0.1,-2.8 1.1,2.7 c 1.7,4.3 2.7,3.3 2.5,-2.5 -0.1,-4 -0.2,-4.4 -0.5,-1.7 l -0.5,3.5 -1.7,-3.4 c -1.5,-2.7 -1.9,-3 -2.4,-1.6 z"
       id="path30"
       style="fill:#ffffff;stroke:none;stroke-width:0.1" />
    <path
       d="m 113.9,71.4 c -1.6,3.4 0.2,7.6 3.1,7.6 1.5,0 2,-0.7 2,-2.5 0,-1.7 -0.5,-2.5 -1.7,-2.5 -1.4,0 -1.5,0.2 -0.4,0.9 0.7,0.5 1,1.4 0.7,2 -1.4,2.3 -2.6,1 -2.6,-2.9 0,-4.2 0.7,-4.8 2.9,-2.8 1.1,1.1 1.3,1 0.9,-0.2 -0.8,-2.6 -3.7,-2.3 -4.9,0.4 z"
       id="path32"
       style="fill:#ffffff;stroke:none;stroke-width:0.1" />
    <path
       d="m 120.5,70.2 c -0.2,0.7 -0.3,2.9 -0.2,4.8 0.2,3 0.6,3.5 2.7,3.7 1.4,0.1 1.8,0 0.8,-0.3 -1,-0.3 -1.8,-1.4 -1.8,-2.5 0,-1.1 0.4,-1.8 0.9,-1.4 0.5,0.3 1.2,0.1 1.6,-0.5 0.3,-0.5 -0.1,-1 -0.9,-1 -2.2,0 -2,-2.7 0.2,-3.3 1.2,-0.4 1.1,-0.5 -0.6,-0.6 -1.2,0 -2.5,0.5 -2.7,1.1 z"
       id="path34"
       style="fill:#ffffff;stroke:none;stroke-width:0.1" />
    <path
       d="m 126,74 c 0,3 0.4,5 1.1,5 0.7,0 0.9,-1 0.7,-2.5 -0.3,-1.3 -0.1,-2.6 0.5,-2.8 1.2,-0.4 -0.1,-4.7 -1.4,-4.7 -0.5,0 -0.9,2.2 -0.9,5 z"
       id="path36"
       style="fill:#ffffff;stroke:none;stroke-width:0.1" />
    <path
       d="m 131.2,71.8 c -0.1,2.1 -0.6,3.1 -1.3,2.6 -0.8,-0.4 -0.9,0.1 -0.4,1.7 1.6,5.1 2.7,3.7 2.2,-2.7 -0.2,-3.3 -0.4,-3.8 -0.5,-1.6 z"
       id="path38"
       style="fill:#ffffff;stroke:none;stroke-width:0.1" />
    <path
       d="m 133.2,74 c -0.1,2.8 0.3,5 0.9,5 0.5,0 0.9,-1.2 0.9,-2.6 0,-3.2 2.2,-2.7 3.1,0.7 0.5,1.6 0.7,0.5 0.7,-3.1 -0.1,-3 -0.3,-4.5 -0.5,-3.3 -0.5,2.8 -3.3,3 -3.3,0.3 0,-1.1 -0.4,-2 -0.9,-2 -0.5,0 -0.9,2.2 -0.9,5 z"
       id="path40"
       style="fill:#ffffff;stroke:none;stroke-width:0.1" />
    <path
       d="m 141.1,72.7 c -1.6,5.5 -1.4,7.1 0.3,4.7 1.5,-1.9 1.5,-1.9 3.1,0.1 l 1.6,2 -0.5,-2 c -0.2,-1.1 -0.7,-3.5 -1.1,-5.3 -0.9,-4.2 -2.2,-4.1 -3.4,0.5 z m 2.9,1.4 c 0,0.5 -0.4,0.9 -1,0.9 -0.5,0 -1,-0.7 -1,-1.6 0,-0.8 0.5,-1.2 1,-0.9 0.6,0.3 1,1 1,1.6 z"
       id="path42"
       style="fill:#ffffff;stroke:none;stroke-width:0.1" />
    <path
       d="m 147.1,74.2 c 0.1,2.9 0.4,4.3 0.6,3 0.6,-2.8 2.1,-2.8 3.2,0 0.7,1.8 0.9,1.1 0.8,-2.7 -0.2,-4.4 -0.5,-5 -2.4,-5.3 -2.2,-0.3 -2.3,0 -2.2,5 z m 3.7,-2.4 c 0.2,0.7 -0.3,1.2 -1.2,1.2 -0.9,0 -1.6,-0.7 -1.6,-1.6 0,-1.7 2.2,-1.4 2.8,0.4 z"
       id="path44"
       style="fill:#ffffff;stroke:none;stroke-width:0.1" />
    <path
       d="m 153.1,74.2 c 0,3.9 0.3,4.8 0.9,3.3 1.2,-2.8 1.2,-8.5 0,-8.5 -0.5,0 -1,2.4 -0.9,5.2 z"
       id="path46"
       style="fill:#ffffff;stroke:none;stroke-width:0.1" />
    <path
       d="m 157.7,69.8 c -1.2,1.9 -2.5,9.2 -1.6,9.2 0.5,0 0.9,-0.7 0.9,-1.5 0,-0.8 0.7,-1.5 1.5,-1.5 0.8,0 1.5,0.7 1.5,1.5 0,0.8 0.4,1.5 0.9,1.5 1,0 -0.7,-7.9 -1.9,-9.3 -0.4,-0.5 -1,-0.5 -1.3,0.1 z m 1.3,3.7 c 0,0.8 -0.4,1.5 -1,1.5 -0.5,0 -0.7,-0.7 -0.4,-1.5 0.4,-0.8 0.8,-1.5 1,-1.5 0.2,0 0.4,0.7 0.4,1.5 z"
       id="path48"
       style="fill:#ffffff;stroke:none;stroke-width:0.1" />
    <path
       d="m 165,74 c 0,4.8 0.1,5 2.8,4.9 1.6,-0.1 2,-0.3 1,-0.6 -1,-0.2 -1.8,-1.3 -1.8,-2.4 0,-1.1 0.4,-1.8 0.9,-1.4 0.5,0.3 1.2,0.1 1.6,-0.5 0.3,-0.5 -0.1,-1 -0.9,-1 -2.2,0 -2,-2.7 0.2,-3.3 1,-0.3 0.6,-0.5 -1,-0.6 C 165.1,69 165,69.2 165,74 Z"
       id="path50"
       style="fill:#ffffff;stroke:none;stroke-width:0.1" />
    <path
       d="m 174,74 c 0,4.8 0.1,5 2.8,4.9 1.6,-0.1 2,-0.3 1,-0.6 -1,-0.2 -1.8,-1.3 -1.8,-2.4 0,-1.1 0.4,-1.8 0.9,-1.4 0.5,0.3 1.2,0.1 1.6,-0.5 0.3,-0.5 -0.1,-1 -0.9,-1 -2.2,0 -2,-2.7 0.2,-3.3 1,-0.3 0.6,-0.5 -1,-0.6 C 174.1,69 174,69.2 174,74 Z"
       id="path52"
       style="fill:#ffffff;stroke:none;stroke-width:0.1" />
    <path
       d="m 180.3,70.6 c -0.4,1.1 0.1,2.3 1.5,3.5 2.2,1.7 2.9,3.9 1.4,3.9 -0.4,0 -1.4,-0.6 -2.1,-1.2 -1.1,-1.1 -1.3,-1 -0.9,0.2 0.7,2.2 4.4,2.4 5.2,0.3 0.5,-1.3 -0.1,-2.4 -1.9,-3.9 -1.9,-1.5 -2.4,-2.4 -1.5,-2.9 0.7,-0.4 1.7,-0.1 2.2,0.6 0.8,1.2 0.9,1.1 0.5,-0.1 -0.5,-2.2 -3.6,-2.5 -4.4,-0.4 z"
       id="path54"
       style="fill:#ffffff;stroke:none;stroke-width:0.1" />
    <path
       d="m 186.8,69.7 c 0.7,0.3 1.2,2.3 1.2,4.9 0,2.4 0.5,4.4 1,4.4 0.6,0 1,-2 1,-4.5 0,-2.5 0.5,-4.5 1,-4.5 0.6,0 1,1.5 1,3.2 0,4.2 1.2,6.1 3.6,5.6 1.5,-0.2 1.9,-1.3 2,-5.3 l 0.2,-5 -0.7,4.4 c -0.8,6.2 -3.1,6.7 -3.1,0.7 V 69 l -4.2,0.1 c -2.4,0 -3.7,0.3 -3,0.6 z"
       id="path56"
       style="fill:#ffffff;stroke:none;stroke-width:0.1" />
    <path
       d="m 199,74 c 0,4.7 0.2,5 2.5,5 2.8,0 4.2,-3.3 3.1,-7.5 -0.5,-1.8 -1.3,-2.5 -3.1,-2.5 -2.3,0 -2.5,0.3 -2.5,5 z m 4.5,-2 c 0.7,2.3 -0.2,6 -1.6,6 -0.5,0 -0.9,-1.8 -0.9,-4 0,-4.2 1.4,-5.4 2.5,-2 z"
       id="path58"
       style="fill:#ffffff;stroke:none;stroke-width:0.1" />
    <path
       d="m 206.4,71.4 c -1,4.3 0.3,7.8 2.9,7.4 1.9,-0.3 2.2,-0.9 2.2,-4.8 0,-3.9 -0.3,-4.5 -2.2,-4.8 -1.7,-0.3 -2.4,0.3 -2.9,2.2 z m 4.1,2.6 c 0,1.8 -0.6,3.5 -1.2,3.7 -0.9,0.3 -1.3,-0.8 -1.3,-3.7 0,-2.9 0.4,-4 1.3,-3.8 0.6,0.3 1.2,2 1.2,3.8 z"
       id="path60"
       style="fill:#ffffff;stroke:none;stroke-width:0.1" />
    <path
       d="m 213.3,70.7 c -0.4,1.1 0.1,2.2 1.5,3.1 1.2,0.8 2.2,2.1 2.2,2.8 0,1.7 -1.2,1.8 -2.9,0.2 -1.1,-1.1 -1.3,-1 -0.9,0.2 0.7,2.2 4.7,2.5 5.5,0.4 0.4,-1.1 -0.1,-2.3 -1.5,-3.5 -2.5,-2 -3,-4.4 -0.7,-3.5 0.8,0.3 1.5,0.1 1.5,-0.4 0,-1.7 -4,-1.1 -4.7,0.7 z"
       id="path62"
       style="fill:#ffffff;stroke:none;stroke-width:0.1" />
    <path
       d="m 223.1,73.4 c -1.4,5.9 -1.4,6.4 0.4,4 1.5,-1.9 1.5,-1.9 3,0 1.8,2.4 1.8,1.9 0.4,-4 C 226.3,71 225.4,69 225,69 c -0.4,0 -1.3,2 -1.9,4.4 z m 2.9,0.1 c 0,0.8 -0.4,1.5 -1,1.5 -0.5,0 -1,-0.7 -1,-1.5 0,-0.8 0.5,-1.5 1,-1.5 0.6,0 1,0.7 1,1.5 z"
       id="path64"
       style="fill:#ffffff;stroke:none;stroke-width:0.1" />
    <path
       d="m 229.1,74.2 c 0.1,4.4 0.3,4.8 0.9,2.3 l 0.7,-3 0.7,2.7 c 0.9,3.1 2.5,2.8 2.7,-0.5 0.1,-1.7 0.3,-1.5 0.9,0.8 0.7,2.6 0.8,2.2 0.9,-2.3 0.1,-5.8 -1.2,-7 -2.4,-2 l -0.7,3.3 -1.1,-3.3 c -1.5,-4.8 -2.7,-3.9 -2.6,2 z"
       id="path66"
       style="fill:#ffffff;stroke:none;stroke-width:0.1" />
    <path
       d="m 238,74 c 0,4.8 0.2,5.1 2.3,4.8 1.9,-0.3 2.2,-0.9 2.2,-4.8 0,-3.9 -0.3,-4.5 -2.2,-4.8 -2.1,-0.3 -2.3,0 -2.3,4.8 z m 3.8,-2.2 c 0.2,0.7 -0.3,1.2 -1.2,1.2 -0.9,0 -1.6,-0.7 -1.6,-1.6 0,-1.7 2.2,-1.4 2.8,0.4 z m -0.3,4.2 c 0,0.7 -0.6,1.5 -1.2,1.8 -0.8,0.2 -1.3,-0.5 -1.3,-1.8 0,-1.3 0.5,-2 1.3,-1.8 0.6,0.3 1.2,1.1 1.2,1.8 z"
       id="path68"
       style="fill:#ffffff;stroke:none;stroke-width:0.1" />
    <path
       d="m 244.4,74 c 0.1,6.5 1.6,6.5 1.6,0 0,-2.8 -0.4,-5 -0.9,-5 -0.5,0 -0.8,2.2 -0.7,5 z"
       id="path70"
       style="fill:#ffffff;stroke:none;stroke-width:0.1" />
    <path
       d="m 247,74 c 0,4.8 0.1,5 2.8,4.9 2.4,-0.2 2.4,-0.2 0.4,-0.6 -1.5,-0.3 -2.2,-1 -1.9,-2.1 0.2,-0.9 0.9,-1.6 1.5,-1.5 0.7,0.2 1.2,-0.2 1.2,-0.7 0,-0.6 -0.7,-1 -1.5,-1 -2.3,0 -1.8,-1.9 0.8,-3 2.1,-0.8 2.1,-0.9 -0.5,-0.9 C 247.1,69 247,69.2 247,74 Z"
       id="path72"
       style="fill:#ffffff;stroke:none;stroke-width:0.1" />
    <path
       d="m 253.2,74.2 c 0.1,3.7 0.2,4.3 0.5,2 0.3,-2 0.8,-3 1.5,-2.6 0.8,0.5 0.9,0.1 0.5,-1 -0.4,-1 -0.7,-2.2 -0.7,-2.7 0,-0.5 -0.4,-0.9 -1,-0.9 -0.6,0 -0.9,2.3 -0.8,5.2 z"
       id="path74"
       style="fill:#ffffff;stroke:none;stroke-width:0.1" />
    <path
       d="m 257.2,72 c 0.2,1.6 0.1,3.1 -0.4,3.2 -1.1,0.4 0.1,3.8 1.3,3.8 0.5,0 0.9,-2.3 0.9,-5 0,-3 -0.4,-5 -1.1,-5 -0.7,0 -1,1.2 -0.7,3 z"
       id="path76"
       style="fill:#ffffff;stroke:none;stroke-width:0.1" />
    <path
       d="m 260.7,69.8 c 0.6,0.4 1.3,2.8 1.6,5.2 l 0.4,4.5 0.1,-4.7 c 0.1,-2.6 0.7,-4.9 1.5,-5.1 0.6,-0.3 -0.1,-0.6 -1.8,-0.6 -1.7,0 -2.5,0.3 -1.8,0.7 z"
       id="path78"
       style="fill:#ffffff;stroke:none;stroke-width:0.1" />
    <path
       d="m 266.6,70.7 c -0.2,1 -0.8,3.4 -1.1,5.3 -0.7,3.3 -0.6,3.4 0.8,1.5 l 1.6,-2 1.6,2 1.6,2 -0.5,-2 c -0.2,-1.1 -0.7,-3.5 -1.1,-5.3 -0.7,-3.5 -2.1,-4.2 -2.9,-1.5 z m 2.4,3.4 c 0,0.5 -0.4,0.9 -1,0.9 -0.5,0 -1,-0.7 -1,-1.6 0,-0.8 0.5,-1.2 1,-0.9 0.6,0.3 1,1 1,1.6 z"
       id="path80"
       style="fill:#ffffff;stroke:none;stroke-width:0.1" />
    <path
       d="m 272.3,74 c 0,3 0.2,4.3 0.4,2.8 0.2,-1.6 0.2,-4 0,-5.5 -0.2,-1.6 -0.4,-0.3 -0.4,2.7 z"
       id="path82"
       style="fill:#ffffff;stroke:none;stroke-width:0.1" />
    <path
       d="m 274.3,70.7 c -0.4,1 0.2,2.3 1.5,3.4 2.2,1.7 2.9,3.9 1.4,3.9 -0.4,0 -1.4,-0.6 -2.1,-1.2 -1.1,-1.1 -1.3,-1 -0.9,0.2 0.3,0.8 1.4,1.6 2.6,1.8 1.8,0.3 2.2,-0.2 2.2,-2.2 0,-1.5 -0.8,-3 -2.1,-3.7 -1.6,-0.8 -1.8,-1.4 -1,-2.2 0.9,-0.9 1.4,-0.8 2.1,0.3 0.8,1.3 1,1.2 1,-0.3 0,-2.2 -3.8,-2.3 -4.7,0 z"
       id="path84"
       style="fill:#ffffff;stroke:none;stroke-width:0.1" />
    <path
       d="m 96.5,79 c 0.3,0.5 0.8,1 1.1,1 0.2,0 0.4,-0.5 0.4,-1 0,-0.6 -0.5,-1 -1.1,-1 -0.5,0 -0.7,0.4 -0.4,1 z"
       id="path86"
       style="fill:#ffffff;stroke:none;stroke-width:0.1" />
  </g>
</svg>
