<?xml version="1.0" encoding="UTF-8" standalone="no"?>
<svg
   version="1.1"
   id="Layer_1"
   x="0px"
   y="0px"
   width="100%"
   viewBox="0 0 792 612"
   enable-background="new 0 0 792 612"
   xml:space="preserve"
   sodipodi:docname="ufabc.svg"
   inkscape:version="1.1.1 (3bf5ae0d25, 2021-09-20)"
   xmlns:inkscape="http://www.inkscape.org/namespaces/inkscape"
   xmlns:sodipodi="http://sodipodi.sourceforge.net/DTD/sodipodi-0.dtd"
   xmlns="http://www.w3.org/2000/svg"
   xmlns:svg="http://www.w3.org/2000/svg"><defs
   id="defs35" /><sodipodi:namedview
   id="namedview33"
   pagecolor="#505050"
   bordercolor="#eeeeee"
   borderopacity="1"
   inkscape:pageshadow="0"
   inkscape:pageopacity="0"
   inkscape:pagecheckerboard="0"
   showgrid="false"
   inkscape:zoom="0.70424837"
   inkscape:cx="275.471"
   inkscape:cy="291.80046"
   inkscape:window-width="1920"
   inkscape:window-height="1057"
   inkscape:window-x="-8"
   inkscape:window-y="-8"
   inkscape:window-maximized="1"
   inkscape:current-layer="Layer_1" />

<path
   fill="#006633"
   opacity="1.000000"
   stroke="none"
   d=" M413.976044,273.540985   C413.433929,286.597443 414.141083,299.527100 420.237854,311.399658   C431.479767,333.291656 449.053955,346.318756 473.890808,349.074005   C511.203644,353.213287 542.101746,324.546906 546.171082,291.580872   C548.211792,275.048523 544.040894,260.436066 535.694092,246.647034   C534.127075,244.058228 534.121216,242.266373 535.618835,239.921204   C537.668335,236.711807 539.573669,233.406235 541.439026,230.084732   C542.822510,227.621323 544.174927,227.478561 545.890564,229.754013   C556.182922,243.404633 562.620667,258.381317 564.192932,275.706268   C565.585571,291.053833 562.849365,305.472748 556.686890,319.156830   C549.711853,334.645142 538.337097,346.665161 523.833191,355.572113   C507.157379,365.812927 488.746277,368.722382 469.684540,366.830078   C454.053040,365.278259 440.069366,359.004120 427.609131,349.213715   C418.199127,341.819946 411.110901,332.646362 405.271576,322.141754   C401.376160,327.467041 397.978027,332.713287 393.987915,337.462189   C377.703247,356.843750 356.838440,366.439117 331.471191,367.102722   C311.560425,367.623596 293.812653,362.086121 278.174316,350.017853   C259.140930,335.329651 248.491516,315.976196 245.883759,291.901337   C243.325485,268.283630 250.253998,247.671661 264.503143,229.343719   C272.229889,219.405243 282.348663,212.055115 294.296326,206.268250   C301.883667,209.957840 308.887238,213.911987 315.575928,218.062897   C303.759888,221.426758 293.312927,226.384476 284.565552,234.823364   C265.439575,253.274857 258.701385,275.514008 265.664154,300.945709   C274.790375,334.279266 307.598389,354.712952 340.630402,348.712280   C373.898163,342.668762 395.556335,315.653748 395.847626,283.347900   C395.910858,276.337769 394.041199,269.310181 393.388367,262.365662   C400.468658,266.140747 407.222351,269.840851 413.976044,273.540985  z"
   id="path4" />
<path
   fill="#006633"
   opacity="1.000000"
   stroke="none"
   d=" M320.853363,161.010590   C320.728882,148.195404 320.918884,135.427597 325.816711,123.266289   C337.325043,94.691048 357.908539,76.529526 388.111755,70.116386   C414.401855,64.534134 438.254242,71.075531 458.923187,87.754128   C475.122589,100.826096 484.757721,118.196526 488.018188,138.952057   C491.339874,160.097549 487.359741,179.780701 475.993774,198.313309   C484.495087,199.177277 492.467346,199.987488 501.706848,200.926468   C498.258057,206.863525 495.445953,211.828979 492.455170,216.684387   C492.108856,217.246658 490.734192,217.492676 489.897675,217.389145   C471.592407,215.123550 455.053955,219.638397 439.420685,230.148926   C432.115997,226.068832 425.457794,222.059097 419.066742,217.773026   C431.537689,214.610870 442.382782,209.016525 451.228699,200.164001   C464.887970,186.494644 471.766876,170.009628 471.050781,150.421173   C470.257416,128.718979 460.846130,111.596825 443.611023,98.952988   C429.609802,88.681587 413.813049,84.400978 396.259460,86.905846   C380.498810,89.154869 366.803040,95.731598 356.403076,107.407539   C339.326874,126.578728 334.130188,148.944855 341.644470,173.897675   C339.628418,172.988113 337.938660,172.067841 336.323242,171.031647   C331.151764,167.714401 326.007904,164.354202 320.853363,161.010590  z"
   id="path6" />
<path
   fill="#006633"
   opacity="1.000000"
   stroke="none"
   d=" M538.778564,494.281250   C553.080505,512.122620 543.601868,538.124146 520.841064,543.769104   C515.113037,545.189697 509.066925,545.784546 503.151337,545.891602   C492.705841,546.080505 482.248291,545.603027 471.795807,545.404541   C471.530548,534.813110 471.082062,524.222473 471.036346,513.630066   C470.924835,487.805511 470.998901,461.980103 471.000702,436.155029   C471.001221,429.003693 471.013977,428.772247 478.382050,429.050659   C491.631714,429.551208 505.011383,429.377930 518.080322,431.263702   C539.085876,434.294617 549.073792,458.170563 536.771851,475.039124   C533.793701,479.122742 528.834778,481.761780 525.267700,484.672607   C529.092529,487.370483 533.809143,490.697327 538.778564,494.281250  M526.881348,516.770691   C526.920898,515.274475 526.921265,513.775940 527.006470,512.282349   C527.492737,503.755005 523.889343,497.275391 515.723755,495.137878   C508.159241,493.157654 500.123779,492.976135 492.295471,492.004211   C489.083252,491.605377 487.872772,492.951050 487.947937,496.237030   C488.122986,503.887848 488.000549,511.545410 488.000183,519.200256   C487.999542,532.379395 488.021637,532.721558 501.197998,531.888123   C511.761078,531.219971 522.255798,529.576904 526.881348,516.770691  M512.792725,476.587799   C521.559814,472.238037 524.911621,466.704346 523.961670,458.148621   C523.155151,450.884003 518.426819,445.852264 509.310913,444.182861   C503.348328,443.090912 497.136078,443.200012 491.034882,443.188293   C490.029968,443.186340 488.176239,445.315704 488.147125,446.495422   C487.909515,456.127563 488.051300,465.768433 487.984283,475.405975   C487.967102,477.877930 488.800262,479.244049 491.431091,478.980042   C498.308777,478.289825 505.184052,477.576080 512.792725,476.587799  z"
   id="path8" />
<path
   fill="#FFCC00"
   opacity="1.000000"
   stroke="none"
   d=" M418.799591,218.049362   C425.457794,222.059097 432.115997,226.068832 439.113159,230.307800   C435.387573,234.757675 431.592377,239.290588 427.174408,243.101547   C423.549683,246.228210 418.613373,246.190979 414.703430,243.994568   C393.101959,231.860016 371.658875,219.441818 350.222473,207.015625   C323.882263,191.746796 297.633667,176.319855 271.281128,161.072464   C260.137604,154.624893 254.801743,145.026062 255.072617,132.303360   C255.125076,129.839096 256.115387,127.394798 256.817627,124.305473   C278.476379,136.851654 299.310944,148.920395 320.499451,160.999863   C326.007904,164.354202 331.151764,167.714401 336.323242,171.031647   C337.938660,172.067841 339.628418,172.988113 342.005493,173.974792   C343.816528,174.657578 344.891235,175.352982 345.998138,175.992676   C370.263123,190.015305 394.531708,204.031738 418.799591,218.049362  z"
   id="path10" />
<path
   fill="#006633"
   opacity="1.000000"
   stroke="none"
   d=" M431.688599,476.311707   C440.763000,499.460632 449.655396,522.265320 458.877411,545.915283   C452.704498,545.915283 447.281830,546.242493 441.948883,545.695190   C440.539185,545.550537 438.949646,542.891541 438.227905,541.075012   C435.599823,534.460754 433.233459,527.738831 430.912476,521.007812   C429.695312,517.477966 427.873505,515.797607 423.706512,515.884094   C409.225922,516.184692 394.731445,516.185242 380.250885,515.884216   C376.063019,515.797241 374.292145,517.530518 373.075317,521.048401   C370.802032,527.620728 368.225586,534.089233 366.003784,540.677979   C364.745422,544.409668 362.954102,546.606018 358.527618,546.085327   C354.945251,545.664062 351.273895,545.999878 346.516205,545.999878   C348.708466,540.148193 350.502838,535.098816 352.480316,530.122192   C365.323303,497.801483 378.230286,465.506195 391.033417,433.169769   C392.147095,430.356964 393.556183,428.768097 396.830566,428.953339   C401.970734,429.244141 408.250702,427.451935 411.959320,429.816986   C415.545746,432.104126 416.664459,438.461243 418.563721,443.153412   C422.975281,454.052063 427.203857,465.024750 431.688599,476.311707  M416.172974,482.233215   C411.801910,470.453461 407.430817,458.673676 402.672546,445.850433   C395.208313,465.007355 388.157593,483.103027 380.964081,501.565186   C395.471619,501.565186 409.275665,501.565186 423.582947,501.565186   C421.081665,494.994965 418.787720,488.969391 416.172974,482.233215  z"
   id="path12" />
<path
   fill="#006633"
   opacity="1.000000"
   stroke="none"
   d=" M180.000000,479.000000   C180.332260,489.455017 180.156555,499.460754 181.143829,509.350372   C182.075745,518.685486 185.305725,527.363037 194.952484,531.376953   C205.341919,535.699829 215.651688,535.291687 224.314514,527.660400   C231.231537,521.567078 233.819977,512.892090 233.917084,503.881866   C234.164856,480.890594 234.097992,457.894135 233.913971,434.901703   C233.878952,430.525574 234.811020,428.756683 239.642319,428.881470   C250.993484,429.174683 251.000015,428.922424 251.000000,440.176605   C250.999969,458.171844 251.299911,476.174316 250.865326,494.159027   C250.666763,502.376556 249.796692,510.746033 247.876465,518.720337   C243.233170,538.002869 230.382294,546.714172 211.350388,547.934509   C202.382492,548.509521 193.434692,548.111206 185.062134,544.041138   C172.228577,537.802612 165.002014,526.857056 164.323303,513.404236   C162.966232,486.505219 163.362152,459.518311 162.988785,432.568329   C162.953964,430.054169 163.889297,429.140350 166.469284,428.953949   C180.004944,427.976105 179.999985,427.907410 180.000000,441.509949   C180.000000,453.839966 180.000000,466.169983 180.000000,479.000000  z"
   id="path14" />
<path
   fill="#FFCC00"
   opacity="1.000000"
   stroke="none"
   d=" M414.270569,273.232605   C407.222351,269.840851 400.468658,266.140747 393.032349,262.234711   C391.451385,261.669250 390.491669,261.415405 389.663910,260.934479   C374.828156,252.314499 360.004059,243.674423 345.186646,235.022949   C335.413879,229.316879 325.655609,223.585938 315.890839,217.866150   C308.887238,213.911987 301.883667,209.957840 294.516632,205.994720   C290.251831,203.462997 286.350494,200.940262 281.956818,198.099197   C286.480316,186.746689 280.385590,177.565903 274.645477,167.764755   C280.924042,171.225464 287.258423,174.589310 293.469940,178.166443   C307.770172,186.401794 321.998779,194.761429 336.278046,203.033279   C362.179718,218.037933 388.101013,233.008682 414.003937,248.011169   C418.002625,250.327164 419.148651,255.225418 417.437805,261.157745   C416.320038,265.033691 415.511902,268.998932 414.270569,273.232605  z"
   id="path16" />
<path
   fill="#006633"
   opacity="1.000000"
   stroke="none"
   d=" M607.047485,545.044006   C589.990601,542.231995 576.596191,534.199524 568.235596,519.446045   C564.891663,513.545166 562.479553,506.594971 561.660461,499.876465   C558.412903,473.238159 564.076294,449.202362 591.162048,435.599792   C604.137817,429.083344 618.388794,427.502563 632.855591,429.834717   C637.897400,430.647522 642.919739,431.682556 647.855042,432.980743   C649.025208,433.288483 650.629456,435.069519 650.623169,436.164764   C650.600586,440.100006 649.973877,444.031738 649.565613,448.062317   C643.155579,446.585114 636.818176,444.705933 630.345032,443.706024   C603.489441,439.557373 579.177856,456.397064 578.939331,485.017883   C578.836731,497.322144 580.579346,508.729187 589.478882,518.176147   C600.589294,529.969971 614.480103,533.146057 629.818726,531.457825   C636.315674,530.742798 642.678955,528.813477 649.552185,527.339722   C649.552185,532.300781 649.552185,537.173767 649.552185,542.464111   C635.817017,546.861389 621.713440,546.869324 607.047485,545.044006  z"
   id="path18" />
<path
   fill="#006633"
   opacity="1.000000"
   stroke="none"
   d=" M302.241516,478.995850   C313.370728,479.000305 324.029266,479.090637 334.684753,478.949677   C337.884827,478.907349 339.115723,479.914795 339.049316,483.222260   C338.813080,494.991669 340.120331,492.830414 329.751862,492.974182   C320.761444,493.098846 311.764099,493.153717 302.777618,492.928009   C299.059692,492.834595 297.880249,494.028717 297.927063,497.761078   C298.108734,512.246155 297.893005,526.736145 298.072083,541.221252   C298.117981,544.931396 296.968842,546.067017 293.242432,546.084045   C279.999390,546.144592 279.999969,546.277954 280.000000,533.220642   C280.000031,500.415955 280.081604,467.610840 279.905701,434.807098   C279.881439,430.284973 281.066040,428.818481 285.729279,428.894318   C302.377014,429.165161 319.033234,429.117981 335.682953,428.916840   C339.768982,428.867493 341.236847,429.993073 341.082031,434.220978   C340.709320,444.397552 342.082458,442.901184 332.254028,442.982117   C322.263428,443.064423 312.270172,443.098938 302.281189,442.948517   C299.041748,442.899750 297.890533,443.990631 297.947968,447.257446   C298.108917,456.413300 298.061249,465.574371 297.969177,474.732117   C297.941437,477.487366 298.490265,479.361908 302.241516,478.995850  z"
   id="path20" />





</svg>
