<?xml version="1.0" encoding="UTF-8" standalone="no"?>
<!-- Uploaded to: SVG Repo, www.svgrepo.com, Generator: SVG Repo Mixer Tools -->

<svg
   fill="#000000"
   width="70"
   height="70"
   viewBox="0 0 2.8 2.8"
   version="1.1"
   id="svg4"
   sodipodi:docname="qgis.svg"
   inkscape:version="1.1.1 (3bf5ae0d25, 2021-09-20)"
   xmlns:inkscape="http://www.inkscape.org/namespaces/inkscape"
   xmlns:sodipodi="http://sodipodi.sourceforge.net/DTD/sodipodi-0.dtd"
   xmlns="http://www.w3.org/2000/svg"
   xmlns:svg="http://www.w3.org/2000/svg">
  <defs
     id="defs8" />
  <sodipodi:namedview
     id="namedview6"
     pagecolor="#505050"
     bordercolor="#eeeeee"
     borderopacity="1"
     inkscape:pageshadow="0"
     inkscape:pageopacity="0"
     inkscape:pagecheckerboard="0"
     showgrid="false"
     inkscape:zoom="11.985714"
     inkscape:cx="34.958284"
     inkscape:cy="35"
     inkscape:window-width="1920"
     inkscape:window-height="1057"
     inkscape:window-x="-8"
     inkscape:window-y="-8"
     inkscape:window-maximized="1"
     inkscape:current-layer="svg4"
     fit-margin-top="0"
     fit-margin-left="0"
     fit-margin-right="0"
     fit-margin-bottom="0" />
  <path
     d="M 1.50255,1.5176 V 1.9432875 L 1.1521125,1.587775 V 1.1799375 h 0.4179 L 1.9026875,1.5176 Z M 2.7727,2.40485 V 2.8 H 2.3461375 L 1.678075,2.1118125 V 1.6975875 H 2.0691125 Z M 1.509375,2.2358 1.9026875,2.6291125 C 1.75,2.68065 1.6046625,2.7139 1.3981625,2.7139 0.5992875,2.7139 0,2.1282625 0,1.349425 0,0.5742625 0.5992875,0 1.3981625,0 2.2007125,0 2.8,0.57785 2.8,1.349425 2.8,1.5964375 2.738925,1.824725 2.6299875,2.0211625 L 2.2071,1.586375 c 0.018725,-0.076563 0.028262,-0.1549625 0.027825,-0.2338 0,-0.5004125 -0.3668875,-0.87815 -0.8281,-0.87815 -0.4612125,0 -0.8458625,0.377825 -0.8458625,0.87815 0,0.50085 0.3887625,0.8868125 0.8458625,0.8868125 0.063788,0 0.077,0.00184 0.10255,-0.00367 z"
     id="path2"
     style="fill:#008000;stroke-width:0.0875" />
</svg>
